<?xml version="1.0" encoding="UTF-8" standalone="no"?>
<!-- Generator: Adobe Illustrator 26.3.1, SVG Export Plug-In . SVG Version: 6.00 Build 0)  -->

<svg
   version="1.1"
   id="Layer_1"
   x="0px"
   y="0px"
   viewBox="0 0 1920 1080"
   style="enable-background:new 0 0 1920 1080;"
   xml:space="preserve"
   sodipodi:docname="logo-au-salon-de-danse-typo-curve03-ecriture-base.svg"
   inkscape:version="1.2.1 (9c6d41e4, 2022-07-14)"
   xmlns:inkscape="http://www.inkscape.org/namespaces/inkscape"
   xmlns:sodipodi="http://sodipodi.sourceforge.net/DTD/sodipodi-0.dtd"
   xmlns="http://www.w3.org/2000/svg"
   xmlns:svg="http://www.w3.org/2000/svg"><defs
   id="defs5569" /><sodipodi:namedview
   id="namedview5567"
   pagecolor="#ffffff"
   bordercolor="#000000"
   borderopacity="0.25"
   inkscape:showpageshadow="2"
   inkscape:pageopacity="0.0"
   inkscape:pagecheckerboard="0"
   inkscape:deskcolor="#d1d1d1"
   showgrid="false"
   inkscape:zoom="1.7481481"
   inkscape:cx="900.09534"
   inkscape:cy="548.86653"
   inkscape:window-width="1280"
   inkscape:window-height="649"
   inkscape:window-x="0"
   inkscape:window-y="23"
   inkscape:window-maximized="0"
   inkscape:current-layer="Layer_1" />
<path
   style="display:inline;fill:none;stroke:#cf4646;stroke-width:12.5"
   d="m 735.23071,583.99667 c -1.07864,0 -4.46635,1.79058 -8.09819,2.14513 -1.10339,0.10771 -2.89035,3.08861 -1.56468,5.73994 0.89434,1.7887 1.36561,2.11153 3.47706,4.38419 3.20721,3.45208 3.89757,1.51978 4.62114,1.76097 4.02874,1.34291 1.60424,3.23645 5.50299,1.28708 3.36678,-1.68339 4.99853,-1.66031 6.67233,-3.33407 0.35827,-0.35827 4.24011,-0.56803 8.12623,-5.4259 4.0111,-5.01388 -0.0936,-0.2641 2.42693,-4.04489 0.59496,-0.89243 1.94909,-1.47124 2.42694,-2.42693 2.99311,-5.98624 2.35693,-21.76513 4.76414,-29.78918 1.99073,-6.63577 2.77868,-13.06374 4.94359,-19.55849 1.21347,-3.6404 0.80898,0.80898 2.42694,-4.85387 0.22224,-0.77785 -0.19621,-1.64211 0,-2.42693 0.0925,-0.36997 0.63843,-0.46788 0.80898,-0.80898 0.36178,-0.72357 -0.19621,-1.64211 0,-2.42693 0.29248,-1.16995 1.27142,-2.08082 1.61795,-3.23591 0.74423,-2.48077 1.5282,-7.01153 2.42694,-9.70774 0.24119,-0.72357 1.37676,-0.89439 1.61795,-1.61796 1.71015,-5.13044 -4.80501,4.43039 1.61796,-5.66284 1.13072,-1.77685 2.83712,-3.12848 4.04489,-4.85387 0.69157,-0.98796 0.91701,-2.25459 1.61796,-3.23592 1.29617,-1.81464 3.61447,-2.99478 4.85386,-4.85386 0.34808,-0.52212 1.2676,-2.88556 1.61796,-3.23592 0.14906,-0.14906 2.27787,-0.65991 2.42693,-0.80897 0.19068,-0.19068 -0.19067,-0.61831 0,-0.80898 1.32153,-1.32152 2.22004,1.41105 2.42694,1.61795 1.6738,1.67381 -0.0654,-2.55779 1.61795,0.80898 0.33593,0.67184 0,2.46898 0,3.23591 0,3.20734 -2.23833,5.90602 -3.23591,8.89876 -0.61772,1.85316 -0.19189,3.81159 -0.80898,5.66285 -1.95325,5.85976 0.23324,-1.27544 -1.61795,2.42693 -0.43466,0.86931 0.31199,2.29994 0,3.23592 -0.19068,0.57203 -0.66274,1.03298 -0.80898,1.61795 -0.65043,2.60173 -0.16103,5.49801 -0.80898,8.08978 -0.39789,1.59156 -1.35004,3.24637 -1.61795,4.85387 -0.17733,1.06396 0,2.15728 0,3.23591 -0.26966,1.07864 -0.59093,2.14567 -0.80898,3.23592 -0.25761,1.28802 -1.39806,3.05872 -1.7161,4.33091 -1.13349,4.53395 -0.35995,8.82715 -1.51981,13.4666 -0.28076,1.12303 0.51554,3.0138 0,4.0449 -0.76378,1.52754 -0.80898,2.12548 -0.80898,4.04489 0,4.33746 -0.5844,8.00044 -1.61796,12.13467 -0.43972,1.75889 0.57128,3.94902 0,5.66284 -0.12059,0.36179 -0.63843,0.46789 -0.80898,0.80898 -0.32359,0.64718 0.32359,1.77975 0,2.42694 -0.38135,0.76271 -1.66171,2.42693 -0.80898,2.42693 0.26966,0 -3.53959,3.29961 -3.4322,3.05225 l 3.4322,-7.90612 c 1.78841,-4.11961 -1.84113,-9.28257 -2.28814,-13.75263 -0.6537,-6.53708 -1.91876,-10.83019 -5.18474,-16.2735 -0.62046,-1.03409 0.23584,-3.09821 -0.6169,-3.95095 -0.42637,-0.42637 -1.19158,-0.38261 -1.61795,-0.80898 -1.3409,-1.34089 -2.13609,-3.89946 -4.04489,-4.85386 -3.18013,-1.59007 -6.39716,-1.59929 -9.70774,-2.42694 -3.90651,-0.97663 0.0401,-0.38444 -2.42693,-1.61796 -1.41146,-0.70572 -7.7422,-3.00521 -8.89876,-2.42693 -1.75347,0.87673 -2.42694,5.44386 -2.42694,7.2808 0,2.22649 -0.78536,10.56395 0,12.13467 2.09151,4.18303 4.57764,12.40292 8.61274,15.09299 2.11588,1.41058 2.49173,1.54559 4.32671,3.52193 1.85644,1.99946 2.38472,4.62379 4.95621,6.33724 1.00358,0.6687 2.08949,0.37697 3.09291,1.04591 1.30553,0.87036 2.81254,1.69019 4.1879,2.37787 1.98441,0.99221 4.83795,-0.71504 7.03965,-0.71504 4.55434,0 10.28232,-4.25471 13.08666,-9.86338 0.34109,-0.68219 1.37676,-0.89438 1.61795,-1.61795 0.17055,-0.51165 -0.17055,-1.10632 0,-1.61796 0.74742,-2.24225 2.99598,-4.37401 4.04489,-6.47182 0.41935,-0.8387 1.18129,-2.42694 0.80898,-2.42694 -1.07864,0 0.29633,2.19878 0,3.23591 -0.3313,1.15956 -1.07864,2.15728 -1.61796,3.23592 -0.94757,1.89515 -5.89401,16.75737 -4.04489,18.60649 0.38136,0.38136 1.13558,-0.24119 1.61796,0 0.3411,0.17055 0.46788,0.63843 0.80898,0.80898 1.86439,0.9322 5.64954,-0.78236 6.47182,-2.42693 1.2702,-2.54041 2.55995,-5.38592 3.23592,-8.08978 0.40926,-1.63706 1.98879,-1.92149 2.42693,-3.23592 0.17055,-0.51164 -0.1308,-1.09474 0,-1.61795 0.65696,-2.62785 3.66433,-6.51969 4.85387,-8.89876 0.24119,-0.48238 1.04872,-2.52368 1.43008,-2.90504 1.98317,-1.98317 -1.76128,5.18539 -2.23906,6.14095 -0.83374,1.66748 -3.70486,15.71061 -2.42693,16.98854 1.95191,1.95192 7.44375,-3.56182 8.08978,-4.85387 0.38135,-0.76271 0.42762,-1.66422 0.80897,-2.42693 1.73549,-3.47096 3.6636,-8.91422 7.28081,-11.3257 1.25766,-0.83843 4.93851,-2.46925 6.47182,-3.23591 0.86291,-0.43145 2.373,0.43146 3.23591,0 0.3411,-0.17055 0.46789,-0.63843 0.80898,-0.80898 0.48844,-0.24422 2.05298,0.37397 2.42694,0 0.19068,-0.19067 -0.19068,-0.6183 0,-0.80897 0.19068,-0.19068 0.68838,-0.2412 0.80898,0 1.21831,2.43662 -1.81032,12.03849 1.61795,13.75262 1.13489,0.56745 4.40058,0 5.66285,0 1.68113,0 8.48522,-0.19772 9.70774,-0.80898 1.82311,-0.91155 3.17114,-2.92307 4.85386,-4.04489 0.50171,-0.33447 1.19159,-0.3826 1.61796,-0.80897 0.42637,-0.42637 0.38261,-1.19159 0.80898,-1.61796 4.13418,-4.13419 -1.12831,3.39203 3.23591,-2.42693 1.53255,0.0921 0.53932,-1.88762 0.80898,-2.42694 0.61515,-1.2303 3.9924,-4.80138 4.85387,-5.66285 4.09953,-4.09953 -0.72357,1.20596 2.42693,-4.04489 0.39139,-0.65231 3.00699,-2.32023 3.23591,-3.23591 0.19621,-0.78482 -0.1962,-1.64211 0,-2.42693 0.0925,-0.36997 0.63843,-0.46789 0.80898,-0.80898 0.87264,-1.74528 1.95348,-4.57798 2.42694,-6.47183 0.67473,-2.69894 1.22022,-6.1146 1.61795,-8.89875 0.28988,-2.02917 -0.6696,-5.272 0,-7.28081 0.38136,-1.14406 1.32547,-2.06596 1.61796,-3.23591 0.97595,-3.90379 1.7042,-8.62364 4.04489,-12.13467 0.21154,-0.31731 0.53932,-0.53932 0.80898,-0.80898 0.53932,-0.80898 1.11772,-1.59322 1.61795,-2.42693 3.52871,-5.88117 9.78633,-14.41831 15.37059,-18.6065 1.18231,-0.88674 2.77268,-2.59981 4.04489,-3.23591 0.24119,-0.1206 0.6183,0.19068 0.80898,0 0.19067,-0.19068 -0.19068,-0.6183 0,-0.80898 0.0994,-0.0994 3.96164,-1.05871 4.04489,-0.80898 0.42637,1.27911 0,2.6966 0,4.04489 0,10.13534 -0.16436,5.99157 -4.04489,13.75263 -1.07633,2.15265 -1.86037,4.40851 -3.23592,6.47182 -1.84483,2.76726 -3.95681,4.37599 -6.47182,6.47183 -1.74797,1.45664 -3.07757,3.43283 -4.85387,4.85387 l -3.23591,2.42693 c -0.53932,0.26966 -1.13558,0.44719 -1.61796,0.80898 -2.30417,1.72813 -4.30568,4.91907 -7.2808,5.66285 -0.52322,0.1308 -1.10631,-0.17055 -1.61796,0 -2.53487,0.84495 -5.4636,3.1861 -8.89876,4.04489 -2.5007,0.62517 -6.29087,0 -8.89876,0 -4.96562,0 -12.66111,1.37405 -15.37058,-4.04489 -0.38136,-0.76271 -0.42762,-1.66423 -0.80898,-2.42694 -0.17054,-0.34109 -0.71648,-0.43901 -0.80898,-0.80898 -0.58612,-2.34451 -1.95915,-14.68819 -0.80897,-16.98854 0.61215,-1.2243 2.2532,-3.87116 3.23591,-4.85386 0.19068,-0.19068 0.6183,0.19067 0.80898,0 0.19067,-0.19068 -0.19068,-0.6183 0,-0.80898 0.19067,-0.19068 0.6183,0.19068 0.80897,0 0.44025,-0.44025 1.81801,-3.43596 2.42694,-4.04489 0.85274,-0.85274 2.2325,-0.94902 3.23591,-1.61796 0.63462,-0.42308 0.87802,-1.43297 1.61796,-1.61795 0.78482,-0.19621 1.70336,0.36178 2.42693,0 0.53932,-0.26966 0.38261,-1.19159 0.80898,-1.61796 1.58237,-1.58237 5.42628,-3.11763 7.2808,-4.04489 1.62762,-0.81381 3.07692,-2.6436 4.85387,-3.23591 2.11824,-0.70608 5.82315,0 8.08978,0 0.53932,0 1.2366,-0.38136 1.61796,0 0.92464,0.92464 0,6.67994 0,8.08978 0,2.51245 0.38454,5.59025 0,8.08978 -0.91475,5.94586 -3.20073,11.88837 -4.04489,17.79752 -1.03609,7.25262 -1.48092,15.26004 -0.80898,22.65138 0.35648,3.92125 0.94986,9.51457 3.23591,12.94365 1.4146,2.12189 6.38637,1.34166 5.66285,2.42694 -0.79582,1.19372 -2.76306,2.62634 -3.23591,4.04489 -0.23459,0.70377 -2.75972,11.80188 -1.61796,12.94365 0.38136,0.38135 1.13558,-0.24119 1.61796,0 0.85755,0.42877 1.9982,1.42783 3.23591,0.80897 0.97077,-0.48538 1.45616,-1.94154 2.42693,-2.42693 1.68875,-0.84437 3.56091,-2.32094 4.85387,-4.04489 0.36179,-0.48238 0.38261,-1.19159 0.80898,-1.61796 1.20435,-1.20435 2.92269,-1.73964 4.04489,-3.23591 1.36938,-1.82583 2.00299,-3.8135 3.23591,-5.66285 0.24286,-0.36428 1.14517,-1.38204 1.82543,-2.41769 0.17894,-0.27243 0.34252,-0.54609 0.47468,-0.80943 0.33884,-0.67511 0.47123,-1.28234 0.12683,-1.62674 -0.19068,-0.19068 -0.56779,0.12059 -0.80898,0 -0.68219,-0.3411 -0.89438,-1.37677 -1.61796,-1.61796 -0.51164,-0.17055 -1.13557,0.24119 -1.61795,0 -0.24119,-0.1206 0.24119,-0.68838 0,-0.80898 -0.5819,-0.29095 -5.61365,-0.42909 -6.47183,0 -0.89399,0.447 -2.39975,1.8695 -3.23591,2.42694 -0.96737,0.64491 -1.51336,3.54043 0,4.04489 2.80793,0.93597 6.68447,-0.95076 8.89876,-2.42694 0.22401,-0.14934 0.40647,-0.35234 0.5788,-0.56752 0.31589,-0.39442 0.59777,-0.82974 1.03916,-1.05043 0.24119,-0.12059 0.6183,0.19067 0.80897,0 0.35909,-0.35909 2.21653,-3.83448 2.42694,-4.04489 0.0848,-0.0848 3.48528,-2.17757 3.23591,-2.42694 -0.44794,-0.44794 -2.49111,3.47552 -3.07934,4.5741 -0.0891,0.16646 -0.14486,0.26806 -0.15657,0.27977 -0.42637,0.42637 -1.28349,0.30727 -1.61796,0.80898 -0.29916,0.44874 0.17055,1.10631 0,1.61795 -0.33243,0.9973 -1.93433,2.096 -2.37512,3.10196 -0.0196,0.0448 -0.037,0.0895 -0.0518,0.13396 -0.15145,0.45435 -0.40393,1.32593 -0.69353,2.42141 -0.98268,3.71725 -2.39278,10.01246 -1.73341,11.33121 0.0504,0.10085 3.0342,0.10086 3.23592,0 0.68219,-0.34109 1.07863,-1.07863 1.61795,-1.61795 0.6875,-0.6875 1.84357,-0.84014 2.42694,-1.61796 0.51164,-0.68219 0.42762,-1.66422 0.80897,-2.42693 1.08575,-2.17149 2.86157,-3.69064 4.04489,-5.66285 0.43873,-0.73122 0.29734,-1.74474 0.80898,-2.42693 0.36179,-0.48238 1.19159,-0.38261 1.61796,-0.80898 0.92956,-0.92956 4.34239,-7.06682 4.85387,-8.08978 0.22563,-0.45127 2.20805,-3.01703 2.42693,-3.23591 1.67381,-1.67381 -0.0654,2.55779 1.61796,-0.80898 0.45936,-0.91873 1.0627,-2.40304 1.61795,-3.23592 0.9575,-1.43625 3.26536,-2.48582 4.04489,-4.04489 0.1206,-0.24119 -0.19067,-0.6183 0,-0.80897 0.29987,-0.29987 2.73613,-0.55909 3.23592,-0.80898 2.38191,-1.19096 4.50803,-4.83533 6.47182,-6.47183 3.38273,-2.81894 7.11167,-5.81975 10.51672,-8.08978 4.36422,-2.90948 -0.55718,-0.2518 2.42693,-3.23591 1.37837,-1.37837 3.36952,-2.56054 4.85387,-4.04489 1.8972,-1.8972 -0.19068,0.57203 0.80898,-2.42693 0.38245,-1.14735 1.96405,-1.15507 2.42693,-1.61796 0.57204,-0.57203 0,-1.61796 0,-2.42694 0,-3.62231 -1.1734,-5.84506 -4.04489,-7.2808 -4.09382,-2.04691 -8.53665,3.02276 -10.51671,5.66285 -0.91526,1.22034 -2.38976,1.96668 -3.23592,3.23591 -1.3029,1.95436 -2.35396,4.7809 -4.04489,6.47183 -0.42637,0.42636 -1.28348,0.30727 -1.61795,0.80897 -0.29916,0.44874 0.17054,1.10632 0,1.61796 -0.61082,1.83245 -2.72005,3.59937 -3.23592,5.66285 -0.49695,1.98782 -0.96007,3.6892 -1.61795,5.66284 -0.80898,2.42694 1.61795,-1.61795 0,2.42694 -0.36109,0.90273 -1.25687,1.5242 -1.61796,2.42693 -0.2003,0.50075 0.13081,1.09474 0,1.61796 -0.54006,2.16024 -1.88288,4.29562 -2.42693,6.47182 -0.13081,0.52322 0.17055,1.10632 0,1.61796 -0.73254,2.19761 -2.62321,4.82999 -3.23591,7.2808 -0.29571,1.18281 -0.26494,2.9568 -0.80898,4.04489 -0.67619,1.35238 -1.95359,2.62484 -2.42694,4.04489 -0.14893,0.44679 -4.79308,14.31902 -4.34825,14.76385 0.57203,0.57203 5.15723,-0.20224 5.96621,-0.20224 2.33873,0 2.37502,-1.56604 4.04489,-3.23591 1.61796,-1.61796 3.48099,-3.02336 4.85387,-4.85387 2.01137,-2.68184 2.99074,-6.10407 4.85387,-8.89876 0.4125,-0.61876 1.71943,-3.13444 1.61795,-3.23591 -1.29464,-1.29465 -2.80556,0.97242 -3.23591,1.61795 -0.63729,0.95594 -2.1453,2.91836 -2.42693,4.04489 -0.13081,0.52322 0.17054,1.10632 0,1.61796 -0.1206,0.36179 -0.53932,0.53932 -0.80898,0.80898 -0.26966,0.53932 -0.66274,1.03298 -0.80898,1.61795 -0.21106,0.84424 0.63929,4.21458 0,4.85387 -0.0809,0.0809 -1.80672,0.62022 -0.80898,1.61796 0.38136,0.38135 1.07864,0 1.61796,0 3.25868,0 1.90536,0.20401 4.85387,-3.23591 1.4891,-1.73729 3.52391,-2.99194 4.85387,-4.85387 0.70094,-0.98133 1.01963,-2.18885 1.61795,-3.23592 1.99237,-3.48664 8.83138,-12.16836 2.42694,-15.37058 -3.42261,-1.7113 -7.28803,4.87553 -8.08978,7.2808 -0.3236,0.97078 0.32359,2.26514 0,3.23592 -0.16093,0.48278 -1.58513,3.26874 -0.80898,4.04489 0.57203,0.57203 1.61795,0 2.42693,0 0.89685,0 2.46026,0.38782 3.23591,0 1.02329,-0.51165 1.47502,-1.79232 2.42694,-2.42694 1.00157,-0.66771 3.05347,-1.43551 4.04489,-2.42693 0.19068,-0.19068 -0.1206,-0.56779 0,-0.80898 1.55227,-3.10455 5.72215,-4.85387 8.89876,-4.85387 0.53932,0 1.2366,-0.38135 1.61795,0 0.19282,0.19282 0,2.71321 0,3.23591 0,5.48709 -2.42296,11.31775 -4.85386,16.17957 -0.49151,0.983 -1.66256,3.28051 -2.42694,4.04489 -0.19068,0.19067 -0.6183,-0.19068 -0.80898,0 -0.38135,0.38135 -0.38135,1.99931 0,1.61795 4.88797,-4.88797 0.76767,-1.34341 3.23592,-5.66284 2.00665,-3.51165 4.21276,-4.94541 6.47182,-8.89876 1.79894,-3.14815 8.47293,-8.7923 12.13467,-9.70774 1.21086,-0.30271 1.39695,5.58987 0.80898,6.47182 -0.42308,0.63462 -1.23955,0.95574 -1.61796,1.61796 -0.64597,1.13046 -6.97028,13.25417 -6.47182,13.75263 0.62336,0.62336 7.75945,-3.47524 8.89876,-4.04489 0.68219,-0.3411 0.93576,-1.27686 1.61795,-1.61796 0.24119,-0.12059 0.6183,0.19068 0.80898,0 0.19068,-0.19068 -0.19068,-0.6183 0,-0.80898 0.19068,-0.19067 0.56779,0.1206 0.80898,0 0.97077,-0.48538 1.45616,-1.94154 2.42693,-2.42693 1.90917,-0.95458 4.45209,-0.52044 6.47183,-0.80898 2.71636,-0.38805 5.39361,-1.8877 8.08978,-2.42693 0.79327,-0.15866 1.70336,0.36178 2.42693,0 0.77482,-0.38741 2.77071,-2.89215 4.0449,-1.61796 0.75492,0.75493 -2.42657,3.23554 -2.42694,3.23591 -2.55849,2.55849 -3.19982,5.5185 -4.04489,8.89876 -0.039,0.15591 -0.0579,2.40764 0,2.42694 0.87894,0.29298 7.24048,0.5662 8.08978,0 3.82304,-2.5487 6.63744,-8.5771 10.51674,-10.51672 0.2412,-0.12059 0.6183,0.19068 0.8089,0 0.9663,-0.96623 -0.4319,-7.52425 -0.8089,-8.08978 -0.1496,-0.22437 -0.5678,0.1206 -0.809,0 -1.3633,-0.68164 -1.5657,-1.87019 -3.2359,-2.42693 -2.4618,-0.8206 -5.263,2.2316 -6.47184,4.04489 -1.59629,2.39443 1.29164,6.2305 4.04484,4.85386 1.6485,-0.82424 3.5412,-3.54118 4.8539,-4.85386 1.7869,-1.78688 2.9519,-3.42742 4.8539,-4.85387 3.9908,-2.99309 6.1313,-6.82686 8.8987,-10.51672 0.6865,-0.91525 1.7924,-1.47501 2.427,-2.42693 1.8179,-2.72695 3.3117,-5.73868 5.6628,-8.08978 1.1534,-1.15335 9.0338,-12.80862 9.7078,-12.13467 0.5189,0.51893 -1.358,4.05932 -2.427,5.66284 -1.2536,1.88044 -3.2681,4.88608 -4.8538,6.47183 -0.4264,0.42637 -1.1916,0.38261 -1.618,0.80898 -0.4264,0.42636 -0.4323,1.14711 -0.809,1.61795 -4.3252,5.40647 -8.8423,10.71115 -12.9436,16.17956 -0.7236,0.96477 -0.949,2.2325 -1.618,3.23592 -1.6069,2.41038 -3.8538,3.47171 -4.8539,6.47182 -0.7658,2.29764 -2.89,4.16216 -4.0448,6.47183 -1.0484,2.09669 -4.592,10.23158 -3.236,12.94364 0.1206,0.2412 0.5394,0 0.809,0 2.5953,0 2.2989,-1.05339 4.0449,-3.23591 0.9529,-1.19115 2.3207,-2.01557 3.2359,-3.23591 0.3618,-0.48238 0.3382,-1.24128 0.809,-1.61796 0.9417,-0.75335 2.2942,-0.8646 3.2359,-1.61795 0.9955,-0.79637 2.1824,-2.99138 3.2359,-4.04489 2.2995,-2.2995 8.8726,3.28836 12.1347,-3.23592 0.2412,-0.48238 -0.2412,-1.13557 0,-1.61795 0.4288,-0.85755 1.4278,-1.9982 0.809,-3.23591 -1.6648,-3.32964 -5.6809,-1.3243 -7.2808,0.80897 -0.7236,0.96477 -0.8944,2.27115 -1.618,3.23592 -1.2234,1.63124 -3.9355,3.01726 -4.8539,4.85387 -0.3638,0.72771 -5.9527,10.22684 -4.0448,12.13467 0.1906,0.19067 0.6183,-0.19068 0.8089,0 0.1907,0.19067 -0.1906,0.6183 0,0.80897 0.3814,0.38136 1.0787,0 1.618,0 5.7257,0 6.2748,-5.46581 9.7077,-8.89875 0.1907,-0.19068 0.5678,0.12059 0.809,0 4.045,-2.02251 0.4983,-2.42694 6.4718,-2.42694 3.5543,0 8.5686,0.71322 12.1347,0 2.3038,-0.46076 4.4698,-2.56857 6.4718,-3.23591 1.3773,-0.4591 2.6764,-0.35281 4.0449,-0.80898 1.1441,-0.38135 2.066,-1.32547 3.2359,-1.61796 0.5232,-0.1308 1.1063,0.17055 1.618,0 1.9384,-0.64612 4.0532,-2.83763 5.6628,-4.04489 1.7427,-1.30701 5.4011,-1.09438 6.4719,-3.23591 0.4802,-0.96049 -1.9282,-3.04726 -2.427,-4.04489 -1.291,-2.58195 -2.1511,-1.34218 -3.2359,-2.42693 -0.1907,-0.19068 0.1907,-0.6183 0,-0.80898 -1.6738,-1.67381 0.065,2.55779 -1.6179,-0.80898 -0.1206,-0.24119 0.1906,-0.6183 0,-0.80898 -0.1907,-0.19068 -0.6183,0.19068 -0.809,0 -0.2142,-0.21414 0,-2.09382 0,-2.42693 0,-4.65872 0.023,-9.72615 4.0449,-12.94365 1.0643,-0.85146 4.4644,-3.32584 5.6628,-4.04489 5.425,-3.25498 12.4449,-4.63592 18.6065,-5.66285 1.064,-0.17733 2.2126,0.3411 3.2359,0 0.7904,-0.26345 4.7075,-1.76439 5.6629,-0.80898 0.1906,0.19068 -0.1907,0.6183 0,0.80898 0.1906,0.19068 0.6183,-0.19068 0.8089,0 0.7628,0.76271 0,2.15728 0,3.23591 0,5.03178 -0.5137,4.43472 -2.4269,8.89876 -0.438,1.02194 -0.371,2.21398 -0.809,3.23592 -2.0011,4.66933 -7.3519,10.57361 -11.3257,13.75262 -2.4474,1.95796 -4.2373,4.44545 -7.2808,5.66285 -0.5007,0.2003 -1.0947,-0.1308 -1.6179,0 -5.2815,1.32037 3.0564,0.4344 -4.0449,1.61796 -5.3343,0.88904 -12.8216,0.23653 -16.9885,-3.23592 -3.5272,-2.9393 -3.236,-12.23461 -3.236,-16.17956 0,-3.3438 -1.1127,-8.44316 0.809,-11.32569 1.4808,-2.22115 3.7752,-3.77523 5.6629,-5.66285 3.094,-3.09408 6.6548,-5.84585 9.7077,-8.89876 0.6875,-0.6875 0.9305,-1.73943 1.618,-2.42693 3.5703,-3.57033 10.2624,-3.51328 14.5616,-5.66285 0.8696,-0.43481 1.5045,-1.3105 2.4269,-1.61795 2.0051,-0.66836 5.1428,0 7.2808,0 3.7903,0 5.24,0.28956 8.0898,2.42693 9.1644,6.87331 11.0538,10.05736 13.3811,19.3664 0.1462,0.58498 -4.673,1.90397 -4.4824,2.47601 0.1706,0.51164 -0.3813,1.2366 0,1.61795 0.1907,0.19068 0.6183,-0.19067 0.809,0 0.3814,0.38136 -0.1308,1.09474 0,1.61796 0.986,3.9439 2.4604,7.92262 1.618,12.13467 -0.5445,2.72219 -1.5751,5.53426 -2.427,8.08978 -0.085,0.25582 0,0.53932 0,0.80898 0,0.53932 0.1706,1.10632 0,1.61796 -0.3134,0.94047 -1.4304,2.29824 -1.6179,3.23591 -0.2116,1.05769 0.1525,2.16812 0,3.23591 -0.3358,2.35019 -2.0367,4.13013 -2.4269,6.47183 -0.133,0.79797 0.3004,1.67581 0,2.42693 -0.7917,1.97916 -8.1094,14.19703 -9.9938,16.08142 -0.9534,0.95339 -2.7552,0.5836 -3.808,1.42587 -0.5956,0.47647 -0.078,3.99403 -0.7599,4.33512 -0.4823,0.24119 -2.8516,-2.1003 -3.334,-1.85911 -3.7917,1.89585 -11.228,4.69031 -15.2725,2.66809 -1.9088,-0.9544 -2.7039,-3.51297 -4.0448,-4.85387 -0.4264,-0.42637 -1.1916,-0.38261 -1.618,-0.80898 -0.4264,-0.42637 -0.3826,-1.19159 -0.809,-1.61795 -0.9583,-0.95831 -2.9535,-1.60842 -4.0449,-2.42694 -1.2203,-0.91525 -1.9946,-2.34928 -3.2359,-3.23591 -3.8346,-2.73905 -8.2031,-3.6971 -12.1347,-5.66285 -0.8915,-0.44579 -5.6793,-0.39621 -6.4718,0 -0.2412,0.1206 0.1907,0.6183 0,0.80898 -0.1907,0.19068 -0.6183,-0.19068 -0.809,0 -0.078,0.0786 -0.323,5.33978 0,5.66285 2.6811,2.68101 9.9806,4.04489 13.7527,4.04489 7.038,0 15.3111,-2.44759 20.7964,-6.56155 2.0704,-1.55279 5.1657,-2.28491 7.187,-3.90189 2.8391,-2.27133 3.7538,-6.81753 6.6596,-8.9969 0.4824,-0.36179 1.3346,-1.9557 1.761,-2.38207 0.4264,-0.42637 0.3826,-1.19159 0.809,-1.61796 1.9648,-1.96485 1.1879,0.24057 2.4269,-1.61795 0.9858,-1.47877 1.3616,-3.43342 2.4269,-4.85387 2.6025,-3.46992 5.4766,-7.77893 8.8988,-10.51672 0.4708,-0.37667 1.1916,-0.38261 1.618,-0.80898 0.9853,-0.98532 0.3789,-1.80742 1.6179,-2.42693 2.3807,-1.19033 -1.0651,1.87406 1.618,-0.80898 1.4892,-1.48924 2.4458,-3.48323 4.0449,-4.85387 0.6474,-0.55495 1.7447,-0.29733 2.4269,-0.80897 0.4824,-0.36179 0.3826,-1.19159 0.809,-1.61796 0.8527,-0.85274 2.2325,-0.94901 3.2359,-1.61796 2.9547,-1.96981 9.7644,-7.65697 13.7526,-5.66284 2.2524,1.12621 0.5723,9.79958 0,11.32569 -2.091,3.13645 -1.3105,1.50456 -2.4269,4.85387 -2.206,6.61791 -7.0408,10.22867 -11.3257,15.37058 -2.689,3.22678 -4.8194,6.09554 -8.0898,8.89876 -0.8622,0.73899 -1.8853,0.53474 -2.4269,1.61796 -0.1206,0.24119 0.1906,0.6183 0,0.80898 -0.1907,0.19067 -0.6594,-0.22437 -0.809,0 -0.5543,0.83147 -3.414,7.45887 -4.0449,8.08978 -0.1907,0.19067 -0.6183,-0.19068 -0.809,0 -0.3813,0.38135 0.2412,1.13557 0,1.61795 -2.164,4.328 2.7875,-0.54083 0.809,2.42694 -1.7823,0.40739 -0.4276,1.66422 -0.809,2.42693 -0.3411,0.68219 -1.2768,0.93577 -1.6179,1.61796 -0.3742,0.74837 -2.7985,6.90923 -1.618,8.08978 0.572,0.57203 1.618,0 2.4269,0 3.4279,0 5.8683,-0.9117 8.8988,-2.42694 1.3408,-0.67038 1.5101,-2.31906 2.4269,-3.23591 0.2887,-0.2887 4.7556,-3.13765 4.8539,-3.23591 0.4264,-0.42637 0.3826,-1.19159 0.809,-1.61796 0.1907,-0.19067 0.5678,0.1206 0.809,0 1.6831,-0.84158 1.1593,-1.85998 1.6179,-3.23591 0.8417,-2.52508 0.5393,0.26966 1.618,-0.80898 0.5461,-0.54613 -1.352,-4.58792 -1.618,-4.85387 -0.2141,-0.21414 -2.0938,0 -2.4269,0 -1.5242,0 -4.2526,-0.4701 -5.6629,0 -3.0075,1.0025 -5.5342,3.57608 -8.0897,4.85387 -3.3668,1.68339 0.8648,-0.0558 -0.809,1.61796 -0.1907,0.19068 -0.6183,-0.19068 -0.809,0 -0.2141,0.21414 0,2.09382 0,2.42693 0,2.93139 2.8979,1.61796 5.6628,1.61796 1.4012,0 10.4519,-3.17107 11.3257,-4.04489 1.9101,-1.91007 -4.5122,0.42544 1.618,-1.61796 0.5116,-0.17055 1.2366,0.38136 1.6179,0 0.1907,-0.19068 -0.1906,-0.6183 0,-0.80898 0.1907,-0.19067 0.6183,0.19068 0.809,0 0.1907,-0.19067 -0.1907,-0.6183 0,-0.80897 0.1907,-0.19068 0.6183,0.19067 0.809,0 0.1907,-0.19068 -0.1907,-0.6183 0,-0.80898 0.012,-0.0123 3.1828,-1.61796 3.2359,-1.61796 0.2697,0 0.1206,0.56779 0,0.80898 -1.2936,2.58732 -5.0167,3.48023 -6.4718,5.66285 -0.8878,1.33172 -1.5391,2.71316 -2.4269,4.04489 -0.2697,0.26966 -0.5394,0.53932 -0.809,0.80898 -0.2697,0 -0.6183,-0.19068 -0.809,0 -0.9853,0.98532 -0.3789,1.80742 -1.618,2.42693 -0.2411,0.1206 -0.6183,-0.19068 -0.8089,0 -0.3814,0.38136 0.2412,1.13557 0,1.61796 -0.5899,1.17983 -1.2942,1.29414 -1.618,1.61795 -0.013,0.0133 -1.1822,7.71651 -0.809,8.08978 0.5721,0.57204 1.618,0 2.427,0 1.3483,0 2.7657,0.42637 4.0449,0 5.207,-1.73568 13.6762,-10.40208 16.9885,-15.37058 0.6373,-0.95601 1.9413,-1.13235 2.4269,-1.61796 0.1907,-0.19067 -0.1906,-0.6183 0,-0.80898 0.4562,-0.4562 5.5822,-0.88966 5.6629,-0.80897 0.572,0.57203 0,1.61795 0,2.42693 0,1.93824 -1.1,1.68189 -1.618,3.23591 -0.1705,0.51165 0.1706,1.10632 0,1.61796 -0.7682,2.30478 -8.8806,8.08069 -10.5167,8.89876 -2.1855,1.09277 -3.3084,4.11734 -3.2359,4.04489 0.4264,-0.42637 0.3826,-1.19159 0.809,-1.61796 1.5476,-1.5476 5.4142,-4.5429 7.2808,-5.66284 5.9811,-3.5887 -1.2834,2.48284 4.8538,-2.42694 1.5561,-1.24481 3.0712,-3.15353 4.8539,-4.04489 1.0897,-0.54486 7.4741,-3.04267 8.8988,-1.61795 2.8543,2.8543 -8.6193,12.38461 -9.7078,14.5616 -0.3373,0.6746 -4.1001,3.18072 -3.2359,4.04489 0.8958,0.8958 5.5286,-0.10156 6.4718,-0.80898 1.5541,-1.16551 1.7354,-3.0445 3.236,-4.04489 3.4971,-2.33143 6.951,-5.49796 10.5167,-7.2808 1.0313,-0.51564 0.961,-1.60583 1.6179,-2.42693 0.5094,-0.63676 8.8748,-7.67328 9.7078,-8.08979 0.4884,-0.24421 2.0529,0.37397 2.4269,0 0.2697,-0.26965 0.5393,-1.07863 0.809,-0.80897 1.0549,1.05487 -1.2218,4.87052 -1.618,5.66284 -0.5589,1.11779 -0.4125,2.85548 -0.809,4.04489 -0.6527,1.95823 -1.9314,3.68079 -2.4269,5.66285 -0.1308,0.52322 0.2992,1.16922 0,1.61796 -0.3345,0.5017 -1.1916,0.38261 -1.6179,0.80897 -1.1929,1.19286 -3.4572,5.81151 -4.0449,7.28081 -0.2003,0.50074 0.2991,1.16921 0,1.61795 -0.5718,0.85758 -3.8815,2.74971 -4.8539,3.23592 -1.3204,0.66018 -2.5454,1.36804 -4.0449,1.61795 -0.1747,0.0291 -6.3632,0.21727 -6.4718,0 -0.2412,-0.48238 0.1308,-1.09474 0,-1.61795 -0.6575,-2.6298 -1.259,-3.95384 0,-6.47183 1.0825,-2.1651 2.0347,-2.23084 4.0449,-3.23591 0.3411,-0.17055 0.439,-0.71649 0.8089,-0.80898 1.421,-0.35523 7.5703,-0.66427 8.8988,0 1.661,0.83049 0.994,0.80898 3.2359,0.80898 0.8986,0 5.0908,-0.57204 5.6629,0 1.0786,1.07864 -1.3483,0.80898 0.8089,0.80898 2.3687,0 7.7001,1.00386 9.7078,0 3.3668,-1.68339 -0.8648,0.0559 0.809,-1.61796 0.2696,-0.26966 2.1572,-0.53932 2.4269,-0.80898 0.3814,-0.38135 0,-1.07863 0,-1.61795 0,-0.53932 0.3814,-1.2366 0,-1.61796 -1.0521,-1.05207 -7.636,-1.44038 -8.8988,-0.80898 -3.81,1.90502 -8.0897,6.88295 -8.0897,11.3257 0,1.27466 -0.6559,4.85386 0.8089,4.85386 1.5668,0 5.1009,0.68551 6.4719,0 0.6821,-0.34109 0.9833,-1.19488 1.6179,-1.61795 0.7095,-0.47302 1.824,-0.206 2.4269,-0.80898 0.4629,-0.46289 0.4707,-2.04448 1.618,-2.42693 0.5116,-0.17055 1.1356,0.24119 1.618,0 0.2412,-0.1206 -0.1907,-0.6183 0,-0.80898 0.2696,-0.26966 2.1572,-0.53932 2.4269,-0.80898 0.1907,-0.19068 -0.1907,-0.6183 0,-0.80898 0.9823,-0.98227 4.0449,-0.19926 4.0449,-1.61795"
   id="path5571"
   sodipodi:nodetypes="cssssssssssssssssssssssssssssssssssscssssssssssssssssssssssssssssssssssssssssssssssssssssssssssssscssssssssssscssssssssssccssssssssssssssssssssssssssssssssssssssssssssssssssssssssssssssssssssssssssssssssssssssssssssssssssssssssssscsssssssssssssssssssssssssssssssssssssssssssscsssssssssssssscsssssssssssssssssssssssssssssssssssssssssssscssssssssssssssssssssssscsssssssssssssssssssccssssssssssssssssscssssssssscssssssssssssssssssssssssssssssccsssssssssssssscssssssssssssssssssssssssssssssssssssssssssssssssssc" /><g
   id="g5564">
	<path
   d="M1030.6,543.8c-2.6-0.3-6.2,1.5-11.1,5.3c-2.1,1.7-3.8,3.4-5.1,5.3c-4.1,4.5-7,7.6-8.8,9c-2.2,1.9-3.2,2.1-3.6,2.1   c-0.2,0-0.5-0.2-0.7-0.4c-0.2-0.3-0.3-0.6-0.3-1.1c0-0.7,1.1-3.1,7.9-11.7l33.5-42.6l-4.6-0.3l-28.8,36.4c0-0.1,0-0.2,0-0.3   c0.1-1.1-0.1-2.1-0.7-2.8c-0.5-0.8-1.3-1.2-2.2-1.3c-1.9-0.1-4.5,0.8-8,2.7c-3.4,1.9-6.2,4.4-8.3,7.4s-3.3,6.1-3.5,9.2   c-0.1,1.5,0.1,2.8,0.5,3.8c0.5,1.1,1.3,1.7,2.4,1.8c0.8,0.1,1.8-0.1,2.9-0.6c1.1-0.5,2.8-1.8,5.2-4.1c1.3-1.2,2.4-2.4,3.4-3.4   c-0.9,1.9-1.4,3.6-1.5,5c-0.1,1.1,0.1,2.1,0.6,2.8c0.5,0.8,1.2,1.2,2,1.2c0,0,0.1,0,0.2,0c0.8,0,1.9-0.5,3.2-1.5s3.5-3.1,6.6-6.4   l0.3-0.3c-0.3,1-0.5,2-0.6,3c-0.2,1.9,0,3.3,0.5,4.3c0.6,1.1,1.5,1.7,2.8,1.8c0.2,0,0.3,0,0.5,0c1.7,0,3.9-0.8,6.7-2.4   c3-1.7,6.4-4.6,10.2-8.7l0.2-0.3l-0.7-1.4l-0.3,0.6c-4,4.1-7.4,7.1-10.2,8.6c-2.7,1.6-4.8,2.3-6.2,2.2c-0.5-0.1-0.9-0.3-1.3-0.9   c-0.4-0.6-0.5-1.2-0.5-1.8c0.1-1,1-3.2,4.9-7.8c3.3-0.2,6.5-1.4,9.5-3.3c3-2,4.7-4.2,4.9-6.4c0.1-0.7-0.1-1.2-0.4-1.8   C1031.7,544.2,1031.2,543.9,1030.6,543.8z M999.6,557.6c-2.8,2.8-4.9,4.7-6.3,5.7c-1.2,0.9-2.4,1.4-3.5,1.3c-0.4,0-0.8-0.2-0.9-0.4   c-0.4-0.4-0.4-0.8-0.4-1.4c0.2-2.3,2.7-6.2,7.6-11.7c5.8-6.5,8.8-7.9,10.2-7.9c0.1,0,0.1,0,0.2,0c0.5,0,0.8,0.2,1.1,0.5   c0.2,0.4,0.3,0.9,0.3,1.6c-0.1,1.4-0.8,3.2-2.1,5.1C1004.5,552.4,1002.4,554.8,999.6,557.6z M1028.7,549.8   c-1.5,1.5-3.4,2.7-5.5,3.6c-1.6,0.6-2.6,0.9-3.3,1.1c1.3-1.6,2.7-3.2,4.4-4.8c2-1.9,3.4-3.1,4.3-3.6c0.8-0.5,1.4-0.7,2-0.7   c0.1,0,0.1,0,0.2,0c0.1,0,0.1,0.1,0.2,0.1c0,0.1,0.1,0.2,0.1,0.6C1031,547.1,1030.2,548.4,1028.7,549.8z"
   id="path5550" />
	<path
   d="M1113.5,551.5c4.7-8.2,7.7-16.4,8.9-24.2c0.4-2.5,0.5-5.2,0.4-7.8l3.5-2.4c1.2-0.8,2.2-1.5,3-2l3.6-2.3l-0.3-1.6l-6.1,4   c-1.6,1-2.9,1.9-3.9,2.6c-0.8-7.8-3.1-13.9-7-18.2c-4.1-4.4-9.2-7.2-15.2-8.2c-6.5-1-13.2-0.4-20,1.7c-6.9,2.2-12.7,6.1-17.3,11.6   c-4.6,5.5-7.5,11.9-8.7,18.9c-0.8,4.9-0.1,9.5,2,13.6s5.6,6.6,10.1,7.3c7.8,1.2,15.6-0.8,23.3-6c7.7-5.2,12.2-11.3,13.3-18.1   c0.4-2.4,0-4.8-1.2-7.3c-1.2-2.6-3.2-4.1-6-4.5c-5.2-0.8-11,1.1-17.5,5.7c-6.4,4.6-12.3,10.9-17.4,18.9l-0.2,0.3l0.9,1.2l0.4-0.6   c5.5-8.5,11.4-14.9,17.5-19s11.5-5.7,16.1-5c2.3,0.4,3.9,1.6,5,3.7s1.5,4.3,1.1,6.5c-1,6.4-5.3,12.1-12.6,17   c-7.4,4.9-14.9,6.8-22.4,5.6c-3.9-0.6-6.9-2.6-8.6-5.9c-1.8-3.3-2.5-6.7-2-9.9c0.8-5,3.9-10.7,9.1-16.9c5.3-6.2,11-10.9,17.2-14   c6.1-3.1,12.3-4.1,18.4-3.1c5.4,0.9,10.1,3.5,14,7.9c3.8,4.3,6,10.3,6.6,17.7c-7.2,5-16.1,14.3-26.4,27.7   c-4.8,6.2-8.2,10.4-9.9,12.3s-3.7,3.7-5.8,5.4c-2.1,1.7-4.1,2.9-5.8,3.8c-1.8,0.8-3.5,1.4-5.3,1.8c-1.8,0.4-2.4,0.4-2.6,0.4l-5.5-4   c-4.2-2.7-8.1-4.3-11.4-4.9c-4.7-0.8-7.4,0.4-7.8,3.3c-0.3,1.6,0.5,3.1,2.2,4.5c1.6,1.3,4.3,2.3,8.1,2.9c4.4,0.7,8.7,0.7,12.7-0.1   c2.9,2.2,6.4,3.6,10.4,4.2c1.6,0.3,3.1,0.4,4.7,0.4c6,0,11.7-1.9,17.2-5.5C1103,566.2,1108.8,559.7,1113.5,551.5z M1051.4,570.3   c-3.6-0.6-6.1-1.5-7.4-2.6s-1.8-2.1-1.7-2.9c0.1-0.9,0.5-1.4,1.3-1.8c0.5-0.2,1.1-0.3,1.8-0.3c0.6,0,1.2,0.1,1.9,0.2   c4.8,0.8,9.8,3.3,14.8,7.5C1059.1,571,1055.5,570.9,1051.4,570.3z M1095.3,569.8c-6.7,4.1-12.9,5.8-18.7,4.9   c-0.4-0.1-0.8-0.1-1.2-0.3c-0.4-0.1-0.8-0.1-1.1-0.2c-0.4-0.2-0.9-0.3-1.3-0.4l-1.2-0.4l-3.8-1.8c1.7-0.3,4.3-1.1,7.8-2.4   c2.3-0.9,4.7-2,7-3.4c2.2-1.3,4.4-2.9,6.5-4.7c1.8-1.5,3.4-3.2,4.8-5c1.6-1.9,3.8-5.1,6.5-9.4c3.7-5.7,6.6-10,8.6-12.8   c2.4-3.2,4.6-5.9,6.6-8c1.8-1.9,3.7-3.7,5.6-5.2c0.1,2.2,0,4.3-0.3,6.4c-1.3,7.8-4.3,15.9-8.9,24.1   C1107.5,559.3,1101.8,565.6,1095.3,569.8z"
   id="path5552" />
	<path
   d="M1179.9,589.8c3.3,0.5,6.7,0.2,10-1c3.4-1.3,5.6-3,6.3-5c-0.2-0.5-0.2-1.1-0.4-1.6c-0.2-0.6-0.6-1-1.2-1.2   c-2.4-0.9-6.4,0-12,2.6c-2.5,1.1-4.5,2.5-6.2,4l-1.7,1.1c1-1.4,1.8-3,2.3-4.7c0.5-1.4,0.9-3.1,1.2-4.9c0.4-1.8,0.7-3.1,0.9-3.9   c0.3-1,0.7-1.7,1.2-2.2s1.5-1.3,3-2.3l0.3-0.2l-0.1-1.8l-21.5,14.2v0.2l-2.9,2.1c-2.9,2.1-5.4,3.6-7.5,4.4c-2.5,1-3.6,1-4.1,0.9   c-0.1,0-0.3-0.1-0.4-0.4c-0.1-0.3-0.1-0.6,0-0.9c0.1-0.5,0.5-1,1.1-1.6c0.7-0.6,2.4-1.9,5-3.9c2.7-2,4.7-3.7,5.9-5.2   c1.2-1.5,2.1-3.1,2.6-4.7c0.3-1.3,0.4-2.3,0-3.1s-1.1-1.4-2.2-1.7c-2.2-0.6-6.7,1.4-13.5,6.2c1.6-1.9,2.7-3.8,3.2-5.6   c0.3-1,0.3-1.9,0-2.6c-0.3-0.8-0.8-1.3-1.5-1.5c-2.5-0.7-7.9,2-16.7,8.3l-0.3,0.2l0.1,0.3c-5,4-8.4,6.5-10.1,7.5   c-2.2,1.4-3,1.4-3.3,1.4c-0.2,0-0.4-0.2-0.5-0.5c-0.2-0.3-0.2-0.7-0.1-1.3c0.2-0.9,1.1-2.1,2.5-3.5l16.3-15.8l-4.8-1.1l-3,2.9   c0.2-1.1,0.2-1.9-0.1-2.6c-0.3-0.7-1-1.2-1.9-1.4c-3.2-0.7-7.3,0.4-12.8,3.5c-5.4,3-8.7,7-9.8,11.7c-0.4,1.7-0.5,3.2-0.2,4.4   c0.3,1.3,1,2.2,2,2.4c2,0.5,6-1.6,12.2-6.2c-1,1.6-1.6,3-1.9,4.3c-0.2,1.1-0.3,2,0,2.9c0.3,1.2,1.1,1.6,1.7,1.8   c0.1,0,0.3,0.1,0.5,0.1c0.9,0,2-0.4,3.6-1.3c1.8-1,5.4-3.7,11.2-8.3l0.3-0.2l-0.1-0.3c9.9-7,13.6-8.1,14.9-7.8   c0.3,0.1,0.6,0.2,0.4,1c-0.1,0.4-0.8,1.5-3.9,4.1l-16.5,14l5.2,1.4l0.2-0.2c6.5-5.4,12.2-9.7,16.9-12.9c4.6-3.1,7.8-4.4,9.7-3.9   c0.4,0.1,0.7,0.3,0.8,0.5c0.1,0.2,0.1,0.5,0,1c-0.2,0.6-1.1,1.9-4.5,4.4l-2.5,1.8c-2.2,1.6-3.6,2.7-4.2,3.3s-1.3,1.4-1.9,2.4   c-0.7,1-1.1,2-1.4,3.1s-0.3,2.2-0.1,3.1c0.3,1,0.8,1.6,1.6,1.8c0.3,0.1,0.7,0.1,1.1,0.1c2.1,0,5-1.2,8.9-3.6   c-0.3,0.4-0.6,0.9-0.7,1.5c-0.4,1.3-0.4,2.6,0,3.7c0.5,1.1,1.2,1.9,2.3,2.2c0.7,0.2,1.4,0.3,2.3,0.3c3.1,0,7.2-1.6,12.3-4.7   c-0.5,0.9-1,1.8-1.3,2.8c-1.6,4.5,0.1,6.1,1.8,6.7c0.6,0.2,1.4,0.3,2.2,0.3c1.4,0,3.2-0.3,5.3-0.9c3.3-1,7.3-3,12-6.1l0.3-0.2   l-0.4-1.5l-0.6,0.4c-4.8,3.1-8.8,5.1-11.9,6c-3,0.9-5.2,1.1-6.5,0.6c-0.5-0.2-0.8-0.6-1-1.2c-0.2-0.7-0.2-1.3,0-1.9   C1173.6,595.4,1175,593.5,1179.9,589.8z M1186.8,585.2c2.3-1.3,4-2.2,5.1-2.5c0.9-0.3,1.7-0.4,2.3-0.2c0.2,0.1,0.2,0.2,0.2,0.2   c0,0.1,0,0.2-0.1,0.6c-0.3,0.9-1.4,2-3.2,3.1c-1.8,1.1-3.9,1.8-6.2,2.1c-1.7,0.2-2.8,0.3-3.5,0.2   C1183,587.5,1184.8,586.3,1186.8,585.2z M1109.5,579.2c-2.7,1.3-3.7,1.4-4.1,1.3c-0.4-0.1-0.6-0.3-0.7-0.7c-0.3-0.6-0.3-1-0.2-1.4   c0.5-2.3,3.6-5.8,9.3-10.5c6.1-5.1,9.3-6.4,11-6.4c0.2,0,0.4,0,0.6,0.1c0.5,0.1,0.8,0.3,1,0.6s0.2,0.8,0,1.4c-0.3,1.3-1,2.5-2,3.8   s-3.3,3.4-6.6,6.1C1114.4,576.2,1111.6,578.1,1109.5,579.2z M1167.8,589.8c-4,3.6-6.9,5.1-8.8,4.5c-0.7-0.2-1.5-0.7-1.2-2.1h0.1   c0.6,0.2,1.2,0,1.9-0.5c0.6-0.5,1-1.1,1.3-1.9c0.2-0.6,0.2-1.1,0-1.7c-0.2-0.7-0.7-1-1.1-1.1c-0.2-0.1-0.4-0.1-0.7-0.1   c1.3-0.9,2.6-1.9,4.1-3l0.3-0.2v-0.1l14.1-9.2c-0.4,0.8-0.8,1.7-1.1,2.6C1174.9,581.9,1171.9,586.2,1167.8,589.8z"
   id="path5554" />
	<path
   d="M789,567.5l-0.2,0.6c-1.5,4.3-4.1,7.5-7.9,9.4c-0.1,0-0.1,0.1-0.2,0.1c0.7-7.4,2.4-19.2,5.2-35.2   c2.9-16.7,5.8-29.7,8.5-38.7l6-20l-1,0.4c-3.3,1.4-6.5,4.1-9.5,7.8s-6,8.8-9,15.2c-2.9,6.3-7,18.5-12.4,36.8   c-3.8-5.7-7.8-10.2-11.9-13.2c-4.5-3.2-8.6-4.2-12.3-2.9c-3.3,1.2-5.2,4.3-5.9,9.2c-0.6,4.8,0.1,10.2,2.2,16.1   c3.4,9.4,9.5,17.2,18.3,23.3l0,0c-1.1,3.8-3.2,8.2-6.2,12.8c-3.1,4.6-6.5,7.7-10.3,9c-3.1,1.1-6.3,1-9.6-0.4   c-3.2-1.4-5.4-3.6-6.5-6.6c-0.3-0.7-0.4-1.5-0.5-2.2c1.2,2.3,2.7,3.2,4.3,2.6c0.9-0.3,1.5-1,1.8-2.1c0.3-1,0.2-2.1-0.2-3.3   c-0.5-1.3-1.2-2.3-2.2-3.1c-1.1-0.8-2.1-1-3.2-0.6c-1.1,0.4-1.9,1.4-2.3,3c-0.4,1.5-0.2,3.4,0.6,5.5c1.4,3.8,3.9,6.6,7.5,8.2   c2.1,0.9,4.1,1.4,6,1.4c1.4,0,2.8-0.2,4.2-0.7c7.2-2.6,13.3-10.4,17.8-22.7v0c5,2.4,10,3.3,14.9,3.1l-0.7,6.6l5.6-2.1l0.6-5.5   c3.8-1.9,6.6-4.7,8.4-8.2l0.4-3.4L789,567.5z M759.3,575L759.3,575c-8.1-5.5-13.8-12.7-16.9-21.5c-2-5.4-2.5-10.4-1.6-14.7   s2.8-7,6-8.1c0.8-0.3,1.6-0.4,2.5-0.4c2.4,0,5.1,1.1,8,3.3c4,3,7.6,7.1,10.6,12.2c0,0,0,0.1,0.1,0.1c-0.8,3.1-2.7,9.9-4.2,14.9   C762.3,565.7,760.2,572.2,759.3,575z M775.2,578.8l0,0.1c-2.1,0.3-4.6,0.1-7.4-0.5c-2.9-0.7-5.3-1.5-7.1-2.5l-0.1,0l0.3-0.7   c2.4-6.5,6.7-22.4,8.1-27.6c0,0,0,0,0,0.1c0.9,1.8,1.7,3.6,2.3,5.3c2.6,7,4,14.4,4.1,24.2L775.2,578.8z M776.2,570.5   c-0.6-7.1-1.9-13.1-3.6-18.1c-0.8-2.3-1.9-4.6-3-6.6c0,0-0.1-0.1-0.1-0.2c5.3-19.3,10.2-33.5,14.7-42.2c4.2-8.2,8.6-13.7,13-16.4   c-3.7,6.5-7.7,18.4-12,35.6C781.1,539,778.1,555.1,776.2,570.5z"
   id="path5556" />
	<path
   d="M815.2,563.2c-2.2,4.9-4,8.6-5.4,11c-1.7,2.8-2.9,3.7-3.6,3.8c-0.4,0.1-0.6,0.1-0.8-0.1c-0.2-0.2-0.4-0.5-0.5-1   c-0.1-0.4-0.1-1.4,0.9-4.6l1.6-5.1c1.3-4.1,3.2-9.3,5.6-15.5l0.3-0.9l-5.2,1.3l-0.1,0.2c-1.1,2.4-2.1,4.8-3,7.1l-3.5,8.5   c-1.2,3.1-2.7,6-4.4,8.8c-2.1,3.3-3.4,4.2-4.1,4.4c-0.2,0-0.5,0.1-0.8-0.3c-0.3-0.3-0.5-0.6-0.6-1l-0.1-0.4c0-0.7,0.2-1.6,0.6-2.8   l5.7-16c0.9-2.3,1.6-4.2,2.1-5.6l0.3-0.9l-5,1.2l-0.1,0.2c-0.7,1.1-1.5,2.7-2.3,4.6c-0.7,1.6-1.9,4.2-3.5,7.6l-0.4,3.4l0.1,0.1   l0.3-0.6c0.9-1.9,1.7-3.5,2.4-5l-1.5,4.3c-1.2,3.5-1.5,6.6-0.9,9.2c0.3,1.3,0.8,2.2,1.5,2.9c0.6,0.5,1.2,0.8,1.8,0.8   c0.2,0,0.3,0,0.5-0.1c2.6-0.6,5.9-5.5,10-15c-0.9,3.3-1.1,6.2-0.5,8.4c0.3,1.3,0.8,2.2,1.5,2.9s1.5,1,2.3,0.8   c0.9-0.2,2-1.1,3.3-2.7c1.3-1.5,3.5-5.8,6.7-13.1l0.1-0.3l-1.2-1.1L815.2,563.2z"
   id="path5558" />
	<path
   d="M883.7,519.7c3.5-1.9,7.9-5.1,13.2-10.1c5.4-5.1,9.5-10.1,12-14.9s3.6-9,3.1-12.3c-0.2-1.3-0.8-2.5-1.7-3.3   c-1-0.9-2.1-1.2-3.4-1.1c-1.2,0.2-2.5,0.6-3.8,1.4v0c-3.1,1.9-6.6,5.5-10.5,11.1c-5.2,7.3-9.6,16.8-12.8,28.3   c-0.1,0.6-0.3,1.1-0.5,1.7v0c-6.8,3.6-12.2,5.7-16.1,6.2c-5.3,0.7-9.7-0.3-12.9-2.9c-3.2-2.7-5.1-6.1-5.6-10.1   c-0.9-6.3,1.1-13.2,5.9-20.4c4.7-7.2,11.9-11.5,21.3-12.7c2-0.3,4.2-0.4,6.4-0.3h0.5v-1.6h-0.5c-2.5,0-5,0.1-7.4,0.4   c-9.7,1.3-17.1,5.4-22.1,12.1c-4.9,6.7-6.9,14.1-5.8,22.2c0.7,4.9,2.8,8.8,6.3,11.7s8.1,4,13.7,3.3c4.7-0.6,9.9-2.5,15.5-5.6   c-3.7,12.5-7.1,21.8-9.8,27.5c-2.8,5.9-6.3,10.6-10.4,14c-4,3.4-8.4,5.4-12.9,6c-3.3,0.5-6-0.1-8-1.5c-2-1.5-3.1-3.5-3.5-6.3   c-0.1-1-0.1-1.9,0.1-2.7c0.1-0.4,0.2-0.7,0.3-0.8c0,0.2,0,0.4,0,0.5c0.1,0.8,0.5,1.5,1,2.1c0.6,0.6,1.3,0.9,2,0.8   c0.8-0.1,1.5-0.6,1.9-1.5c0.4-0.8,0.6-1.8,0.4-2.8c-0.2-1.1-0.6-2-1.3-2.7c-0.7-0.6-1.6-0.9-2.5-0.8c-1.4,0.2-2.4,1.1-3.2,2.8   c-0.7,1.6-0.9,3.4-0.6,5.5c0.4,3.3,1.9,5.8,4.3,7.4c1.9,1.3,4.1,1.9,6.7,1.9c0.8,0,1.6-0.1,2.4-0.2c7.5-1,14.6-5.1,21-12.1   S878.6,539.4,883.7,519.7L883.7,519.7z M884.8,515.7c0-0.1,0.1-0.2,0.2-0.4c1.3-5,3.2-10.4,5.7-16.1c3-6.9,6-11.9,8.8-14.7   c1.6-1.6,3.1-2.8,4.6-3.6v0c1.1-0.6,2.1-1,3.1-1.1c0.2,0,0.3,0,0.4,0c0.7,0,1.2,0.2,1.7,0.7c0.6,0.6,0.9,1.4,1.1,2.4   c0.6,4.4-2,10.4-7.8,17.9c-5.6,7.1-11.7,12.7-18.1,16.5c0,0-0.1,0.1-0.2,0.2C884.5,516.9,884.6,516.3,884.8,515.7z"
   id="path5560" />
	<path
   d="m 972.7,554.8 c -2.3,2.8 -4.3,4.9 -6.1,6.1 -2.2,1.6 -3.2,1.9 -3.8,1.9 -0.1,0 -0.3,0 -0.5,-0.3 -0.2,-0.2 -0.3,-0.5 -0.3,-0.9 0,-0.5 0.2,-1.1 0.7,-1.8 0.5,-0.8 1.8,-2.5 3.9,-5 2.1,-2.6 3.6,-4.7 4.4,-6.5 0.8,-1.8 1.3,-3.5 1.3,-5.2 0.1,-3.4 -1.8,-4.1 -3.3,-4.1 -2.3,0 -6.1,3.1 -11.4,9.4 1.1,-2.3 1.6,-4.3 1.7,-6.2 0,-1 -0.2,-1.9 -0.7,-2.5 -0.5,-0.7 -1.1,-1.1 -1.8,-1.1 -2.6,0 -7.2,4 -14,12.3 l -0.2,0.3 0.2,0.3 c -0.7,0.9 -1.4,1.4 -2.1,1.4 -0.6,0 -1,-0.3 -1.4,-0.9 2.4,-4.4 3.6,-7.7 3.5,-10.1 -0.1,-3.2 -1.6,-3.9 -3,-3.8 -1.7,0 -4,1 -6.8,2.9 -2.8,1.9 -5.2,4.5 -7.3,7.9 -0.8,1.2 -1.4,2.4 -1.9,3.7 -6.6,9.4 -9.8,11.5 -11.2,11.5 -0.3,0 -1.1,0 -1.1,-1.5 v -0.5 c 0.1,-1.4 1.5,-4.7 4.2,-9.9 l 3.9,-7.7 3.1,-5.6 c 1.5,-2.7 2.6,-4.7 3.2,-5.9 2.8,-1.4 6.8,-4.6 11.8,-9.5 5.1,-5 9.4,-10 12.8,-14.9 3.5,-5.1 5.1,-8.7 5,-11.3 0,-0.9 -0.4,-1.8 -1,-2.5 -0.7,-0.8 -1.4,-1.2 -2.4,-1.1 -2.2,0.1 -4.8,1.9 -7.9,5.4 -3,3.4 -6.5,8.2 -10.6,14.3 -4,6 -8.2,12.8 -12.5,20.3 0,0 -0.2,0.3 -0.5,0.8 -0.3,0.5 -0.7,0.9 -1.1,1.3 -0.6,0.5 -1.4,1.3 -2.5,2.5 -1,1.2 -4.5,5.9 -10.3,13.9 l -0.2,0.3 0.1,0.1 c -3.6,5.3 -6.1,8.7 -7.4,10.2 -1.7,2 -2.5,2.2 -2.7,2.3 -0.2,0 -0.4,-0.1 -0.6,-0.3 -0.2,-0.2 -0.4,-0.6 -0.4,-1.2 -0.1,-1 0.4,-2.3 1.4,-4.1 l 10.9,-19.9 -4.9,0.4 -2,3.7 c -0.1,-1.1 -0.4,-1.9 -0.9,-2.5 -0.5,-0.6 -1.3,-0.8 -2.2,-0.8 -3.2,0.2 -6.9,2.6 -11.2,7.1 -4.3,4.5 -6.2,9.3 -5.9,14.1 0.1,1.8 0.5,3.2 1.1,4.3 0.6,1.1 1.4,1.7 2.4,1.7 h 0.2 c 2,-0.2 5.3,-3.3 9.7,-9.4 0,0 0,-0.1 0.1,-0.1 -0.4,1.3 -0.6,2.5 -0.6,3.6 v 1 0.1 0 c 0.1,1.1 0.4,1.9 0.8,2.7 0.7,1.1 1.5,1.3 2.1,1.2 0.9,-0.1 2,-0.8 3.5,-2.4 1.4,-1.5 4.1,-5.2 8.2,-11.2 l 0.2,-0.3 -0.1,-0.1 7.4,-10 c 0.5,-0.7 0.9,-1.3 1.3,-1.8 l 2.1,-3.7 c -1.4,2.5 -3.3,5.9 -4.5,8.2 -0.4,0.8 -0.8,1.6 -1.2,2.5 -3,6.1 -4.4,10.6 -4.3,13.8 0.1,1.2 0.4,2.3 1,3.1 0.6,0.9 1.4,1.4 2.2,1.4 h 0.1 c 2.4,-0.1 5.8,-3.2 10.4,-9.4 -0.1,1 -0.2,1.9 -0.2,2.9 0,1.6 0.4,2.9 1,3.9 0.7,1 1.5,1.5 2.5,1.5 1.7,0 3.7,-1.2 6.2,-3.6 2.2,-2.1 4.3,-4.7 6.2,-7.8 0.6,0.7 1.4,1 2.2,1 h 0.1 c 1.3,0 2.5,-0.8 3.6,-2.5 l 0.2,-0.3 -0.1,-0.2 c 7.8,-9.3 11.1,-11.3 12.5,-11.3 0.4,0 0.5,0.1 0.5,0.2 0.1,0.1 0.2,0.4 0.2,0.7 0,0.4 -0.4,1.6 -2.7,5 l -12.5,17.7 5.4,0.1 0.2,-0.2 c 5,-6.8 9.4,-12.5 13.1,-16.7 3.6,-4.1 6.4,-6.2 8.3,-6.2 0.4,0 0.7,0.1 0.9,0.3 0.2,0.2 0.3,0.5 0.3,0.9 0,0.7 -0.6,2.1 -3.3,5.4 l -2,2.4 c -1.7,2.1 -2.8,3.5 -3.2,4.3 -0.5,0.8 -0.9,1.7 -1.3,2.8 -0.4,1.1 -0.6,2.2 -0.6,3.3 0,1.2 0.2,2.2 0.7,3 0.5,0.9 1.2,1.4 2,1.4 h 0.1 c 3,0 7.6,-3.9 13.9,-12 l 0.2,-0.3 -0.8,-1.3 z m -36.9,-40.6 c 4.6,-7.8 8,-12.9 10.3,-15.4 2.3,-2.2 4.2,-3.4 5.7,-3.5 0.5,0 0.9,0.2 1.2,0.5 0.4,0.4 0.6,0.9 0.6,1.4 0.1,2.1 -1.5,5.5 -4.6,10.2 -3.2,4.8 -7.4,9.7 -12.5,14.5 -4.1,3.9 -7.3,6.6 -9.5,8.1 1.9,-3.7 4.8,-9 8.8,-15.8 z m -41.3,40 c -0.3,0.4 -0.6,0.9 -0.9,1.4 -2.4,3.6 -4.5,6.2 -6.2,7.9 -2.2,2.1 -3.1,2.4 -3.5,2.5 -0.4,-0.1 -0.7,-0.2 -0.9,-0.5 -0.3,-0.4 -0.4,-0.8 -0.5,-1.2 -0.2,-2.3 1.7,-6.6 5.7,-12.8 4.9,-7.7 7.7,-9.4 9.1,-9.5 h 0.2 c 0.6,0 1.2,0.3 1.3,1.6 0.1,0.9 -0.1,1.8 -0.3,2.8 -0.1,0.4 -0.39225,1.37106 -0.38659,1.36704 l 0.19226,-0.13694 c 0,0 0.16088,-0.16814 0.0609,-0.16814 l -0.21601,0.19268 c -0.1,0.2 -0.15056,0.44536 -0.25056,0.64536 -0.6,1.4 -1.7,3.4 -3.4,5.9 z m 41.6,-0.4 c -1.6,2.6 -3.5,4.8 -5.6,6.6 -2.6,2.2 -4,2.7 -4.7,2.7 -0.4,0 -0.7,-0.2 -1,-0.5 -0.3,-0.4 -0.5,-0.8 -0.5,-1.3 0,-2 2.1,-6.1 6.2,-12.4 5.1,-7.8 7.7,-9.4 9,-9.4 0.3,0 0.7,0.2 1,0.5 0.3,0.4 0.5,0.9 0.5,1.6 0,1.4 -0.4,3.2 -1.2,5.2 -0.9,2 -2.1,4.4 -3.7,7 z"
   id="path5562"
   sodipodi:nodetypes="ccscsccscscccscccscccsccsscccccccccccccscccccccscccccscscsscccsccscccccccccccccsccscsccsscccscscccccssscccsscsscccccccscccccccccccccccccccccccccscscscsc" />
</g>
</svg>
