<?xml version="1.0" encoding="utf-8"?>
<!-- Generator: Adobe Illustrator 26.5.0, SVG Export Plug-In . SVG Version: 6.00 Build 0)  -->
<svg version="1.1" id="Layer_1" xmlns="http://www.w3.org/2000/svg" xmlns:xlink="http://www.w3.org/1999/xlink" x="0px" y="0px"
	 viewBox="0 0 1920 1080" style="enable-background:new 0 0 1920 1080;" xml:space="preserve">
<g>
	<path d="M524.6,610.6c-6.6,14.7-12,25.9-16.2,33.1c-5.1,8.4-8.7,11.1-10.8,11.4c-1.2,0.3-1.8,0.3-2.4-0.3c-0.6-0.6-1.2-1.5-1.5-3
		c-0.3-1.2-0.3-4.2,2.7-13.8l4.8-15.3c3.9-12.3,9.6-28,16.8-46.6l0.9-2.7l-15.6,3.9l-0.3,0.6c-3.3,7.2-6.3,14.4-9,21.3l-10.5,25.6
		c-3.6,9.3-8.1,18-13.2,26.5c-6.3,9.9-10.2,12.6-12.3,13.2c-0.6,0-1.5,0.3-2.4-0.9c-0.9-0.9-1.5-1.8-1.8-3l-0.3-1.2
		c0-2.1,0.6-4.8,1.8-8.4l17.1-48.1c2.7-6.9,4.8-12.6,6.3-16.8l0.9-2.7l-15,3.6l-0.3,0.6c-2.1,3.3-4.5,8.1-6.9,13.8
		c-2.1,4.8-5.7,12.6-10.5,22.8l-0.9-0.6l-0.6,1.8c-4.5,12.9-12.3,22.5-23.8,28.3c2.1-22.2,7.2-57.7,15.6-106.1
		c8.7-50.2,17.4-89.3,25.6-116.3l18-60.1l-3,1.2c-9.9,4.2-19.5,12.3-28.6,23.4c-9,11.1-18,26.5-27.1,45.7
		c-8.7,18.9-21.3,56.2-37.6,111.5c-11.4-17.4-23.8-31-36.1-40c-13.5-9.6-25.9-12.6-37-8.7c-9.9,3.6-15.6,12.9-17.7,27.7
		c-1.8,14.4,0.3,30.7,6.6,48.4c10.2,28.3,28.6,51.7,55,70c-3.3,11.4-9.3,24.1-18.3,37.9c-9.3,13.8-19.5,23.1-31,27.1
		c-9.3,3.3-18.9,3-28.9-1.2c-9.6-4.2-16.2-10.8-19.5-19.8c-0.9-2.1-1.2-4.5-1.5-6.6c3.6,6.9,8.1,9.6,12.9,7.8c2.7-0.9,4.5-3,5.4-6.3
		c0.9-3,0.6-6.3-0.6-9.9c-1.5-3.9-3.6-6.9-6.6-9.3c-3.3-2.4-6.3-3-9.6-1.8c-3.3,1.2-5.7,4.2-6.9,9c-1.2,4.5-0.6,10.2,1.8,16.5
		c4.2,11.4,11.7,19.8,22.5,24.7c6.3,2.7,12.3,4.2,18,4.2c4.2,0,8.4-0.6,12.6-2.1c21.6-7.8,39.7-30.7,53.2-67.6
		c15,7.2,30.1,10.5,45.1,9.3l-1.8,19.2l15.9-5.7l1.8-16.2c11.7-5.7,20.1-14.1,25.6-25l0.3,0.3l0.9-1.8c2.7-5.7,5.1-10.5,7.2-15
		l-4.5,12.9c-3.6,10.5-4.5,19.8-2.7,27.7c0.9,3.9,2.4,6.6,4.5,8.7c1.8,1.5,3.6,2.4,5.4,2.4c0.6,0,0.9,0,1.5-0.3
		c7.8-1.8,17.7-16.5,30.1-45.1c-2.7,9.9-3.3,18.6-1.5,25.3c0.9,3.9,2.4,6.6,4.5,8.7c2.1,2.1,4.5,3,6.9,2.4c2.7-0.6,6-3.3,9.9-8.1
		c3.9-4.5,10.5-17.4,20.1-39.4l0.3-0.9l-3.6-3.3L524.6,610.6z M356.5,646c-24.4-16.5-41.5-38.2-50.8-64.6c-6-16.2-7.5-31.3-4.8-44.2
		c2.7-12.9,8.4-21,18-24.4c2.4-0.9,4.8-1.2,7.5-1.2c7.2,0,15.3,3.3,24.1,9.9c12,9,22.8,21.3,31.9,36.7c-2.1,9.3-6,24.4-12,44.5
		C364.6,622,359.8,636.7,356.5,646z M382.1,656.3c-8.7-2.1-15.9-4.5-21.3-7.5c7.8-22.5,16.2-51.1,25-84.8c2.7,5.4,5.1,10.8,6.9,15.9
		c7.8,21.3,11.7,47.2,12,77.6C398.3,658.4,390.5,658.1,382.1,656.3z M407.6,634.9c-1.8-22.2-5.7-41.2-11.1-56.8
		c-2.4-6.9-5.7-13.8-9-19.8c15.9-58.6,31-101.6,44.5-128.1c12.6-24.7,25.9-41.2,39.1-49.3c-11.1,19.5-23.1,55.3-36.1,107
		C422.4,538.1,413.3,587.7,407.6,634.9z"/>
	<path d="M770.2,449.4c16.2-15.3,28.6-30.4,36.1-44.8s10.8-27.1,9.3-37c-0.6-3.9-2.4-7.5-5.1-9.9c-3-2.7-6.3-3.6-10.2-3.3
		c-12,1.5-26.2,13.8-43,37.6c-16.5,22.8-30.1,53.2-40,90.2c-20.4,10.8-36.7,17.1-48.4,18.6c-15.9,2.1-29.2-0.9-38.8-8.7
		c-9.6-8.1-15.3-18.3-16.8-30.4c-2.7-18.9,3.3-39.7,17.7-61.3c14.1-21.6,35.8-34.6,64-38.2c6-0.9,12.6-1.2,19.2-0.9h1.5v-4.8h-1.5
		c-7.5,0-15,0.3-22.2,1.2c-29.2,3.9-51.4,16.2-66.4,36.4c-14.7,20.1-20.7,42.4-17.4,66.7c2.1,14.7,8.4,26.5,18.9,35.2
		s24.4,12,41.2,9.9c14.1-1.8,29.8-7.5,46.6-16.8c-11.1,37.6-21.3,65.5-29.5,82.7c-8.4,17.7-18.9,31.9-31.3,42.1
		c-12,10.2-25.3,16.2-38.8,18c-9.9,1.5-18-0.3-24.1-4.5c-6-4.5-9.3-10.5-10.5-18.9c-0.3-3-0.3-5.7,0.3-8.1c0.3-1.2,0.6-2.1,0.9-2.4
		c0,0.6,0,1.2,0,1.5c0.3,2.4,1.5,4.5,3,6.3c1.8,1.8,3.9,2.7,6,2.4c2.4-0.3,4.5-1.8,5.7-4.5c1.2-2.4,1.8-5.4,1.2-8.4
		c-0.6-3.3-1.8-6-3.9-8.1c-2.1-1.8-4.8-2.7-7.5-2.4c-4.2,0.6-7.2,3.3-9.6,8.4c-2.1,4.8-2.7,10.2-1.8,16.5
		c1.2,9.9,5.7,17.4,12.9,22.2c5.7,3.9,12.3,5.7,20.1,5.7c2.4,0,4.8-0.3,7.2-0.6c22.5-3,43.9-15.3,63.1-36.4
		c19.2-21,36.7-61.6,52-120.9C741,474.1,754.3,464.5,770.2,449.4z M751.6,418.2c9-20.7,18-35.8,26.5-44.2
		c8.4-8.4,16.2-13.2,23.1-14.1c0.6,0,0.9,0,1.2,0c2.1,0,3.6,0.6,5.1,2.1c1.8,1.8,2.7,4.2,3.3,7.2c1.8,13.2-6,31.3-23.4,53.8
		c-16.8,21.3-35.2,38.2-54.4,49.6C736.8,456,743.1,437.7,751.6,418.2z"/>
	<path d="M998.1,585.6c-6.9,8.4-12.9,14.7-18.3,18.3c-6.6,4.8-9.6,5.7-11.4,5.7c-0.3,0-0.9,0-1.5-0.9c-0.6-0.6-0.9-1.5-0.9-2.7
		c0-1.5,0.6-3.3,2.1-5.4c1.5-2.4,5.4-7.5,11.7-15c6.3-7.8,10.8-14.1,13.2-19.5c2.4-5.4,3.9-10.5,3.9-15.6
		c0.3-10.2-5.4-12.3-9.9-12.3c-6.9,0-18.3,9.3-34.3,28.3c3.3-6.9,4.8-12.9,5.1-18.6c0-3-0.6-5.7-2.1-7.5c-1.5-2.1-3.3-3.3-5.4-3.3
		c-7.8,0-21.6,12-42.1,37l-0.6,0.9l0.6,0.9c-2.1,2.7-4.2,4.2-6.3,4.2c-1.8,0-3-0.9-4.2-2.7c7.2-13.2,10.8-23.1,10.5-30.4
		c-0.3-9.6-4.8-11.7-9-11.4c-5.1,0-12,3-20.4,8.7c-8.4,5.7-15.6,13.5-21.9,23.8c-2.4,3.6-4.2,7.2-5.7,11.1
		c-19.8,28.3-29.5,34.6-33.7,34.6c-0.9,0-3.3,0-3.3-4.5v-1.5c0.3-4.2,4.5-14.1,12.6-29.8l11.7-23.1l9.3-16.8
		c4.5-8.1,7.8-14.1,9.6-17.7c8.4-4.2,20.4-13.8,35.5-28.6c15.3-15,28.3-30.1,38.5-44.8c10.5-15.3,15.3-26.2,15-34
		c0-2.7-1.2-5.4-3-7.5c-2.1-2.4-4.2-3.6-7.2-3.3c-6.6,0.3-14.4,5.7-23.8,16.2c-9,10.2-19.5,24.7-31.9,43
		c-12.3,18.3-25.3,39.4-38.5,62.5c-1.2,1.8-2.4,3.3-3.9,4.5c-1.8,1.5-4.2,3.9-7.5,7.5c-3,3.6-13.5,17.7-31,41.8l-0.6,0.9l0.3,0.3
		c-10.8,15.9-18.3,26.2-22.2,30.7c-5.1,6-7.5,6.6-8.1,6.9c-0.6,0-1.2-0.3-1.8-0.9c-0.6-0.6-1.2-1.8-1.2-3.6c-0.3-3,1.2-6.9,4.2-12.3
		l32.8-59.8l-14.7,1.2l-6,11.1c-0.3-3.3-1.2-5.7-2.7-7.5s-3.9-2.4-6.6-2.4c-9.6,0.6-20.7,7.8-33.7,21.3
		c-12.9,13.5-18.6,28-17.7,42.4c0.3,5.4,1.5,9.6,3.3,12.9c1.8,3.3,4.2,5.1,7.2,5.1c0.3,0,0.3,0,0.6,0c6-0.6,15.9-9.9,29.5-28.6
		c-1.5,5.4-2.1,10.2-1.8,13.8c0.3,3.3,1.2,6,2.4,8.4c2.1,3.3,4.5,3.9,6.3,3.6c2.7-0.3,6-2.4,10.5-7.2c4.2-4.5,12.3-15.6,24.7-33.7
		l0.6-0.9l-0.3-0.3l22.2-30.1c1.5-2.1,2.7-3.9,3.9-5.4c-3,5.1-6.6,12.3-11.1,21.3c-9,18.3-13.2,31.9-12.9,41.5
		c0.3,3.6,1.2,6.9,3,9.3c1.8,2.7,4.2,4.2,6.6,4.2h0.3c7.2-0.3,17.4-9.6,31.3-28.3c-0.3,3-0.6,5.7-0.6,8.7c0,4.8,1.2,8.7,3,11.7
		c2.1,3,4.5,4.5,7.5,4.5c5.1,0,11.1-3.6,18.6-10.8c6.6-6.3,12.9-14.1,18.6-23.4c1.8,2.1,4.2,3,6.6,3c0,0,0,0,0.3,0
		c3.9,0,7.5-2.4,10.8-7.5l0.6-0.9l-0.3-0.6c23.4-28,33.4-34,37.6-34c1.2,0,1.5,0.3,1.5,0.6c0.3,0.3,0.6,1.2,0.6,2.1
		c0,1.2-1.2,4.8-8.1,15l-37.3,53.2l16.2,0.3l0.6-0.6c15-20.4,28.3-37.6,39.4-50.2c10.8-12.3,19.2-18.6,25-18.6
		c1.2,0,2.1,0.3,2.7,0.9s0.9,1.5,0.9,2.7c0,2.1-1.8,6.3-9.9,16.2l-6,7.2c-5.1,6.3-8.4,10.5-9.6,12.9c-1.5,2.4-2.7,5.1-3.9,8.4
		c-1.2,3.3-1.8,6.6-1.8,9.9c0,3.6,0.6,6.6,2.1,9c1.5,2.7,3.6,4.2,6,4.2c0,0,0,0,0.3,0c9,0,22.8-11.7,41.8-36.1l0.6-0.9l-2.4-3.9
		L998.1,585.6z M887.1,463.6c13.8-23.4,24.1-38.8,31-46.3c6.9-6.6,12.6-10.2,17.1-10.5c1.5,0,2.7,0.6,3.6,1.5
		c1.2,1.2,1.8,2.7,1.8,4.2c0.3,6.3-4.5,16.5-13.8,30.7c-9.6,14.4-22.2,29.2-37.6,43.6c-12.3,11.7-21.9,19.8-28.6,24.4
		C866.4,499.9,875.1,484,887.1,463.6z M760.3,587.4c-7.2,10.8-13.5,18.6-18.6,23.8c-6.6,6.3-9.3,7.2-10.5,7.5
		c-1.2-0.3-2.1-0.6-2.7-1.5c-0.9-1.2-1.2-2.4-1.5-3.6c-0.6-6.9,5.1-19.8,17.1-38.5c14.7-23.1,23.1-28.3,27.4-28.6c0.3,0,0.3,0,0.6,0
		c1.8,0,3.6,0.9,3.9,4.8c0.3,3.9-0.6,8.1-2.1,12.6C772,568.8,767.5,576.6,760.3,587.4z M888,582.6c-4.8,7.8-10.5,14.4-16.8,19.8
		c-7.8,6.6-12,8.1-14.1,8.1c-1.2,0-2.1-0.6-3-1.5c-0.9-1.2-1.5-2.4-1.5-3.9c0-6,6.3-18.3,18.6-37.3c15.3-23.4,23.1-28.3,27.1-28.3
		c0.9,0,2.1,0.6,3,1.5c0.9,1.2,1.5,2.7,1.5,4.8c0,4.2-1.2,9.6-3.6,15.6C896.5,567.6,892.9,574.8,888,582.6z"/>
	<path d="M1172.1,552.5c-7.8-0.9-18.6,4.5-33.4,15.9c-6.3,5.1-11.4,10.2-15.3,15.9c-12.3,13.5-21,22.8-26.5,27.1
		c-6.6,5.7-9.6,6.3-10.8,6.3c-0.6,0-1.5-0.6-2.1-1.2c-0.6-0.9-0.9-1.8-0.9-3.3c0-2.1,3.3-9.3,23.8-35.2L1207.6,450l-13.8-0.9
		l-86.6,109.4c0-0.3,0-0.6,0-0.9c0.3-3.3-0.3-6.3-2.1-8.4c-1.5-2.4-3.9-3.6-6.6-3.9c-5.7-0.3-13.5,2.4-24.1,8.1
		c-10.2,5.7-18.6,13.2-25,22.2s-9.9,18.3-10.5,27.7c-0.3,4.5,0.3,8.4,1.5,11.4c1.5,3.3,3.9,5.1,7.2,5.4c2.4,0.3,5.4-0.3,8.7-1.8
		c3.3-1.5,8.4-5.4,15.6-12.3c3.9-3.6,7.2-7.2,10.2-10.2c-2.7,5.7-4.2,10.8-4.5,15c-0.3,3.3,0.3,6.3,1.8,8.4c1.5,2.4,3.6,3.6,6,3.6
		c0,0,0.3,0,0.6,0c2.4,0,5.7-1.5,9.6-4.5c3.9-3,10.5-9.3,19.8-19.2l0.9-0.9c-0.9,3-1.5,6-1.8,9c-0.6,5.7,0,9.9,1.5,12.9
		c1.8,3.3,4.5,5.1,8.4,5.4c0.6,0,0.9,0,1.5,0c5.1,0,11.7-2.4,20.1-7.2c9-5.1,19.2-13.8,30.7-26.2l0.6-0.9l-2.1-4.2l-0.9,1.8
		c-12,12.3-22.2,21.3-30.7,25.9c-8.1,4.8-14.4,6.9-18.6,6.6c-1.5-0.3-2.7-0.9-3.9-2.7c-1.2-1.8-1.5-3.6-1.5-5.4
		c0.3-3,3-9.6,14.7-23.4c9.9-0.6,19.5-4.2,28.6-9.9c9-6,14.1-12.6,14.7-19.2c0.3-2.1-0.3-3.6-1.2-5.4
		C1175.5,553.7,1174,552.8,1172.1,552.5z M1079,594c-8.4,8.4-14.7,14.1-18.9,17.1c-3.6,2.7-7.2,4.2-10.5,3.9c-1.2,0-2.4-0.6-2.7-1.2
		c-1.2-1.2-1.2-2.4-1.2-4.2c0.6-6.9,8.1-18.6,22.8-35.2c17.4-19.5,26.5-23.8,30.7-23.8c0.3,0,0.3,0,0.6,0c1.5,0,2.4,0.6,3.3,1.5
		c0.6,1.2,0.9,2.7,0.9,4.8c-0.3,4.2-2.4,9.6-6.3,15.3C1093.7,578.4,1087.4,585.6,1079,594z M1166.4,570.6
		c-4.5,4.5-10.2,8.1-16.5,10.8c-4.8,1.8-7.8,2.7-9.9,3.3c3.9-4.8,8.1-9.6,13.2-14.4c6-5.7,10.2-9.3,12.9-10.8c2.4-1.5,4.2-2.1,6-2.1
		c0.3,0,0.3,0,0.6,0c0.3,0,0.3,0.3,0.6,0.3c0,0.3,0.3,0.6,0.3,1.8C1173.4,562.5,1170.9,566.4,1166.4,570.6z"/>
	<path d="M1421.4,575.7c14.1-24.7,23.1-49.3,26.8-72.8c1.2-7.5,1.5-15.6,1.2-23.4l10.5-7.2c3.6-2.4,6.6-4.5,9-6l10.8-6.9l-0.9-4.8
		l-18.3,12c-4.8,3-8.7,5.7-11.7,7.8c-2.4-23.4-9.3-41.8-21-54.7c-12.3-13.2-27.7-21.6-45.7-24.7c-19.5-3-39.7-1.2-60.1,5.1
		c-20.7,6.6-38.2,18.3-52,34.9c-13.8,16.5-22.5,35.8-26.2,56.8c-2.4,14.7-0.3,28.6,6,40.9c6.3,12.3,16.8,19.8,30.4,21.9
		c23.4,3.6,46.9-2.4,70-18c23.1-15.6,36.7-34,40-54.4c1.2-7.2,0-14.4-3.6-21.9c-3.6-7.8-9.6-12.3-18-13.5
		c-15.6-2.4-33.1,3.3-52.6,17.1c-19.2,13.8-37,32.8-52.3,56.8l-0.6,0.9l2.7,3.6l1.2-1.8c16.5-25.6,34.3-44.8,52.6-57.1
		c18.3-12.3,34.6-17.1,48.4-15c6.9,1.2,11.7,4.8,15,11.1c3.3,6.3,4.5,12.9,3.3,19.5c-3,19.2-15.9,36.4-37.9,51.1
		c-22.2,14.7-44.8,20.4-67.3,16.8c-11.7-1.8-20.7-7.8-25.9-17.7c-5.4-9.9-7.5-20.1-6-29.8c2.4-15,11.7-32.2,27.4-50.8
		c15.9-18.6,33.1-32.8,51.7-42.1c18.3-9.3,37-12.3,55.3-9.3c16.2,2.7,30.4,10.5,42.1,23.8c11.4,12.9,18,31,19.8,53.2
		c-21.6,15-48.4,43-79.4,83.3c-14.4,18.6-24.7,31.3-29.8,37c-5.1,5.7-11.1,11.1-17.4,16.2c-6.3,5.1-12.3,8.7-17.4,11.4
		c-5.4,2.4-10.5,4.2-15.9,5.4c-5.4,1.2-7.2,1.2-7.8,1.2l-16.5-12c-12.6-8.1-24.4-12.9-34.3-14.7c-14.1-2.4-22.2,1.2-23.4,9.9
		c-0.9,4.8,1.5,9.3,6.6,13.5c4.8,3.9,12.9,6.9,24.4,8.7c13.2,2.1,26.2,2.1,38.2-0.3c8.7,6.6,19.2,10.8,31.3,12.6
		c4.8,0.9,9.3,1.2,14.1,1.2c18,0,35.2-5.7,51.7-16.5C1389.8,619.9,1407.2,600.3,1421.4,575.7z M1234.7,632.2
		c-10.8-1.8-18.3-4.5-22.2-7.8c-3.9-3.3-5.4-6.3-5.1-8.7c0.3-2.7,1.5-4.2,3.9-5.4c1.5-0.6,3.3-0.9,5.4-0.9c1.8,0,3.6,0.3,5.7,0.6
		c14.4,2.4,29.5,9.9,44.5,22.5C1257.8,634.3,1247,634,1234.7,632.2z M1366.7,630.7c-20.1,12.3-38.8,17.4-56.2,14.7
		c-1.2-0.3-2.4-0.3-3.6-0.9c-1.2-0.3-2.4-0.3-3.3-0.6c-1.2-0.6-2.7-0.9-3.9-1.2l-3.6-1.2l-11.4-5.4c5.1-0.9,12.9-3.3,23.4-7.2
		c6.9-2.7,14.1-6,21-10.2c6.6-3.9,13.2-8.7,19.5-14.1c5.4-4.5,10.2-9.6,14.4-15c4.8-5.7,11.4-15.3,19.5-28.3
		c11.1-17.1,19.8-30.1,25.9-38.5c7.2-9.6,13.8-17.7,19.8-24.1c5.4-5.7,11.1-11.1,16.8-15.6c0.3,6.6,0,12.9-0.9,19.2
		c-3.9,23.4-12.9,47.8-26.8,72.5C1403.3,599.1,1386.2,618.1,1366.7,630.7z"/>
	<path d="M1621,690.8c9.9,1.5,20.1,0.6,30.1-3c10.2-3.9,16.8-9,18.9-15c-0.6-1.5-0.6-3.3-1.2-4.8c-0.6-1.8-1.8-3-3.6-3.6
		c-7.2-2.7-19.2,0-36.1,7.8c-7.5,3.3-13.5,7.5-18.6,12l-5.1,3.3c3-4.2,5.4-9,6.9-14.1c1.5-4.2,2.7-9.3,3.6-14.7
		c1.2-5.4,2.1-9.3,2.7-11.7c0.9-3,2.1-5.1,3.6-6.6s4.5-3.9,9-6.9l0.9-0.6l-0.3-5.4l-64.6,42.7v0.6l-8.7,6.3
		c-8.7,6.3-16.2,10.8-22.5,13.2c-7.5,3-10.8,3-12.3,2.7c-0.3,0-0.9-0.3-1.2-1.2c-0.3-0.9-0.3-1.8,0-2.7c0.3-1.5,1.5-3,3.3-4.8
		c2.1-1.8,7.2-5.7,15-11.7c8.1-6,14.1-11.1,17.7-15.6c3.6-4.5,6.3-9.3,7.8-14.1c0.9-3.9,1.2-6.9,0-9.3c-1.2-2.4-3.3-4.2-6.6-5.1
		c-6.6-1.8-20.1,4.2-40.6,18.6c4.8-5.7,8.1-11.4,9.6-16.8c0.9-3,0.9-5.7,0-7.8c-0.9-2.4-2.4-3.9-4.5-4.5c-7.5-2.1-23.8,6-50.2,25
		l-0.9,0.6l0.3,0.9c-15,12-25.3,19.5-30.4,22.5c-6.6,4.2-9,4.2-9.9,4.2c-0.6,0-1.2-0.6-1.5-1.5c-0.6-0.9-0.6-2.1-0.3-3.9
		c0.6-2.7,3.3-6.3,7.5-10.5l49-47.5l-14.4-3.3l-9,8.7c0.6-3.3,0.6-5.7-0.3-7.8c-0.9-2.1-3-3.6-5.7-4.2c-9.6-2.1-21.9,1.2-38.5,10.5
		c-16.2,9-26.2,21-29.5,35.2c-1.2,5.1-1.5,9.6-0.6,13.2c0.9,3.9,3,6.6,6,7.2c6,1.5,18-4.8,36.7-18.6c-3,4.8-4.8,9-5.7,12.9
		c-0.6,3.3-0.9,6,0,8.7c0.9,3.6,3.3,4.8,5.1,5.4c0.3,0,0.9,0.3,1.5,0.3c2.7,0,6-1.2,10.8-3.9c5.4-3,16.2-11.1,33.7-25l0.9-0.6
		l-0.3-0.9c29.8-21,40.9-24.4,44.8-23.4c0.9,0.3,1.8,0.6,1.2,3c-0.3,1.2-2.4,4.5-11.7,12.3l-49.6,42.1l15.6,4.2l0.6-0.6
		c19.5-16.2,36.7-29.2,50.8-38.8c13.8-9.3,23.4-13.2,29.2-11.7c1.2,0.3,2.1,0.9,2.4,1.5c0.3,0.6,0.3,1.5,0,3
		c-0.6,1.8-3.3,5.7-13.5,13.2l-7.5,5.4c-6.6,4.8-10.8,8.1-12.6,9.9c-1.8,1.8-3.9,4.2-5.7,7.2c-2.1,3-3.3,6-4.2,9.3
		c-0.9,3.3-0.9,6.6-0.3,9.3c0.9,3,2.4,4.8,4.8,5.4c0.9,0.3,2.1,0.3,3.3,0.3c6.3,0,15-3.6,26.8-10.8c-0.9,1.2-1.8,2.7-2.1,4.5
		c-1.2,3.9-1.2,7.8,0,11.1c1.5,3.3,3.6,5.7,6.9,6.6c2.1,0.6,4.2,0.9,6.9,0.9c9.3,0,21.6-4.8,37-14.1c-1.5,2.7-3,5.4-3.9,8.4
		c-4.8,13.5,0.3,18.3,5.4,20.1c1.8,0.6,4.2,0.9,6.6,0.9c4.2,0,9.6-0.9,15.9-2.7c9.9-3,21.9-9,36.1-18.3l0.9-0.6l-1.2-4.5l-1.8,1.2
		c-14.4,9.3-26.5,15.3-35.8,18c-9,2.7-15.6,3.3-19.5,1.8c-1.5-0.6-2.4-1.8-3-3.6c-0.6-2.1-0.6-3.9,0-5.7
		C1602.1,707.7,1606.3,702,1621,690.8z M1641.7,677c6.9-3.9,12-6.6,15.3-7.5c2.7-0.9,5.1-1.2,6.9-0.6c0.6,0.3,0.6,0.6,0.6,0.6
		c0,0.3,0,0.6-0.3,1.8c-0.9,2.7-4.2,6-9.6,9.3c-5.4,3.3-11.7,5.4-18.6,6.3c-5.1,0.6-8.4,0.9-10.5,0.6
		C1630.3,683.9,1635.7,680.3,1641.7,677z M1409.3,659c-8.1,3.9-11.1,4.2-12.3,3.9c-1.2-0.3-1.8-0.9-2.1-2.1c-0.9-1.8-0.9-3-0.6-4.2
		c1.5-6.9,10.8-17.4,28-31.6c18.3-15.3,28-19.2,33.1-19.2c0.6,0,1.2,0,1.8,0.3c1.5,0.3,2.4,0.9,3,1.8c0.6,0.9,0.6,2.4,0,4.2
		c-0.9,3.9-3,7.5-6,11.4c-3,3.9-9.9,10.2-19.8,18.3C1424.1,650,1415.7,655.7,1409.3,659z M1584.6,690.8
		c-12,10.8-20.7,15.3-26.5,13.5c-2.1-0.6-4.5-2.1-3.6-6.3h0.3c1.8,0.6,3.6,0,5.7-1.5c1.8-1.5,3-3.3,3.9-5.7c0.6-1.8,0.6-3.3,0-5.1
		c-0.6-2.1-2.1-3-3.3-3.3c-0.6-0.3-1.2-0.3-2.1-0.3c3.9-2.7,7.8-5.7,12.3-9l0.9-0.6v-0.3l42.4-27.7c-1.2,2.4-2.4,5.1-3.3,7.8
		C1606,667.1,1596.9,680,1584.6,690.8z"/>
</g>
</svg>
