<?xml version="1.0" encoding="utf-8"?>
<!-- Generator: Adobe Illustrator 26.5.0, SVG Export Plug-In . SVG Version: 6.00 Build 0)  -->
<svg version="1.1" id="Layer_1" xmlns="http://www.w3.org/2000/svg" xmlns:xlink="http://www.w3.org/1999/xlink" x="0px" y="0px"
	 viewBox="0 0 2691.6 2679.2" style="enable-background:new 0 0 2691.6 2679.2;" xml:space="preserve">
<style type="text/css">
	.st0{display:none;}
</style>
<g id="Layer_2_00000025401348068816473630000018188103142483459243_" class="st0">
	
		<image style="display:inline;overflow:visible;enable-background:new    ;" width="393" height="459" xlink:href="LOGO23NOV.jpg"  transform="matrix(5.5302 0 0 5.5302 457.812 101.3021)">
	</image>
</g>
<g id="Layer_1_00000129888621347180985430000009754028508064198586_">
	<g>
		<path d="M1393.9,351.7c-2.6-12.1-3.1-10.4,0-20.3c-13-7.9-36.4-6.4-36.4,12.1C1359.7,337.8,1384.7,344.9,1393.9,351.7z"/>
		<path d="M1120.6,1706.5c-31.9-7.5-52.3,3.5-64.1,10.7c-14.8,9-28.4,35.1-25.9,69.9c1.2,17.5,8.7,38.1,22.3,61.2
			C1060.8,1834.3,1065,1736.5,1120.6,1706.5z"/>
		<path d="M785.3,2071.7c-27.3-15.3-58-55.4-75.9-88.4c-12.5,11-48.5,54.8-50.9,78c-3,29-8.9,33-18.7,45c-9.9,12-22.7,29-15.8,52
			s13.8,46,6.9,60s-27.6,68,68,66s96.6-38,84.8-57s-18.7-62,0-69s22.7-11,16.8-29C795.8,2114.9,787,2081.7,785.3,2071.7z"/>
		<path d="M953.3,1805.3c-75.7,67.2-222.2,60-285.9,48c0,74.4,84.8,169.7,127.2,208c86.8,10.4,208.3-128.4,251.7-191.1
			c-18.1-1.9-39.2-9.7-40-49.4c-0.8-39.6,9.5-78.2,17.1-108.5C1009.9,1746.7,971.1,1788.7,953.3,1805.3z"/>
		<path d="M996.8,2333.7c-5.8,7.2-27.3,26.6-37.5,30.2c-12.8,4.5-18.2,20,0,25s69.5,6.4,74.4-1.6
			C1030.4,2373.6,1032.3,2340.1,996.8,2333.7z"/>
		<path d="M1393.7,2127.1c9.1-34.4,2.4-75.3,0.4-94.3c-15.3,63.8-47.1,117.8-62.6,133C1346.8,2169.2,1384.6,2161.5,1393.7,2127.1z"
			/>
		<path d="M1070.3,2386.4c25.1,8,45.4-4.5,54.2-21c7.1-13.2,5.6-25.5,3.9-30C1104.5,2348.3,1087.5,2369.3,1070.3,2386.4z"/>
		<path d="M2349.6,2284.3c-16.8-16-109.6-68-132.4-84.3c-13.4-9.6-22.4-19.4-29.8-27.6c20.2-10.6,41.2-23.8,55.7-38.1
			c36.5-36,44.4-59,55.2-88s38.5-83,63.1-82c-6.2-12-31.9-37-84.8-41c-66.1-5-96.6-4-122.3-28c-25.6-24-57.2-36-81.8-31
			s-83.8,18-63.1,0c20.7-18,73-33,126.2-29c53.2,4,113.4,1,127.2-15c-29.9,0-93.5-3.2-108.5-16c-18.7-16-79.9-16-124.2-11
			c-44.2,5-228.6-21.8-280.5-66.6c-33.2-51.2-66.1-104.8-103.3-139.2c-71-65.6-69.5-64.6-100-84s-15-44.7-37-57.6
			s-56.2-5-81.2-117.3c-0.1,0-0.1-0.1-0.2-0.1c26.8,5.8,55.5,3.2,76.8-15c9.9-8.3,17.1-19.4,22.7-30.9c11.4-23,14.5-50.9,0.2-73.4
			c-2.5-3.9-5.3-7.5-8.7-10.6c25.8-14.6,42.9-46.9,51.5-73.5c11.8-37.8-7.3-66.1-29-94.8c-1.6-2.4-3.3-4.8-4-7.7
			c-1.2-4.1-1.5-9-1.6-13.3c-0.3-13.8,0.8-27.6,2.3-41.3c7.4-1.8,14.5-4.7,21.1-8.1c31.5-16.8,54.1-46.3,71.3-76.8
			c7.5-13.4,13.9-27.2,19.4-41.5c49.4,0,49.3-72,37.3-103.8c-4.4-11.6-16-25.4-27.7-39.3c-20.9-24.8-49.4-47.9-90.3-45.2
			c-20.8,1.4-39.2,10.6-55.2,19c-32.9,17.2-53.8,42.6-51.7,70.9c-2.5,0.8-15.2,8.5-18.5,34.3c-6,26.4,1.8,49.3,6.5,57.5l-12.5,6.5
			c-3.6-16.8-9.9-46-13.7-62.2c-2.6-22.7-7.1-69.3-7.5-105.5c-0.4-38.8,5-159.8,6.6-213.9c10.3,3.8,33.5-10.3,18.5-26.7
			c10.4-1,21.4-11.4,16.4-23.5c31.4-14.7,14.1-29.6,5-33.8c10.1,0.4,20.3-12.8,19.1-21.1c-3-21-26.9-16.4-48.4-20
			c0-0.1,2.4-10.6-2.1-16.6c-10.2-13.4-39.2-23.7-62,7.3c16-10.9,46.8-16,48.4-1.2c2,18.5-48.5,49-53,89.5
			c-3.6,32.4-21.8,154.5-30.5,211.5c-8,33.7-22.9,107.7-18.5,134.5c3,18.3,7.3,30.3,10.6,37.2c4,32.4,4.4,68.6,6.5,92.4
			c5.6,29.1-10.8,56-26,72c-19,20-37,33-35,63c2,30,26,43,47,41c18.9-1.8,87.2-25.5,115.2-37.5c15.1-3.9,43.5-9.7,67.6-6.4
			c0,0-8.3-8-41.3-8.2c21.6-13.6,53.4-34.8,77.2-45.6h0.1c-2.6,13.6-4.6,27.4-4.9,41.4c0,4.7,0,9.5,1.2,14.2
			c0.6,3.2,2.4,6.1,4.1,8.8c5.1,7.7,10.6,15.1,15.4,23c13,20.4,19.6,44.8,12,68.4c-9.1,28-24.2,57.9-49.9,73.9
			c-7.8,4.7-16.7,7.7-25.8,7.7h-2.3l-2.3-0.2c-0.5,0-1.5-0.1-2.1-0.2c0.3-10.6,5.5-18.1,22.3-19.6c-3.2-7.5-12.2-25.3-47.8-7.4
			c-5.7,2.9-13.4,5.5-22.4,7.7c4.3-5.3,7.6-12.6,8.4-22.4c1-11.9,0.7-18.2-0.3-20.8c-0.6-23.6-5.8-54.1-22.3-76.7
			c-10.3-4-37.2-8.6-62,5c-31,17-47,18.5-77-5s-69-108-87-127c-14.4-15.2-14.3-33.2-15.9-43.2c-10-1.3-52.2-8-84.1-28.8
			c-2.3,2.3-2.5,16.7,30.3,47.5c3.3,5.7,12.6,31.4,15.8,44.2c6.4,23.1,42.9,87.1,71.8,140c20.3,37.1,33.4,72.4,36.9,78l32.1,8.4
			c1-10.7,5.4-43.2,14.2-43.2s4.1,32.9,0.4,45.3c39.5,0,108.9,5.5,118.5-10.5c5.5-9.2,11.2-17.7,16.9-15.5c-1.8,8.2-3,19-9.2,27.5
			c-64.1,12.5-173.4,11.5-183.6-12.1c-35.4-81.9-79-151.3-95.4-179.6c-15.3-26.5-21.9-56.7-27.1-60c-12.1-0.3-29.3,9.9-45.8,17.3
			c-26.5,11.9-26.4-6.8-12.8-11.9c15.2-5.7,36.1-14.8,22.3-16.9c-17.5-2.6-49.3,7.2-56.8-0.7c-7.5-8-1.4-14.1,19.6-16
			c21-2,33.2-9,33.1-12.5c-0.2-10.7-58.8,5.7-70,0c-9-4.6-3.5-12.4,20.5-18.9s69-13.9,53.5-28.3s-55-39.8-38-48.2s75.5,45.2,93,48.2
			s31.5,2.5,36-21.4s23-31.3,27.5-20.4c4.5,10.9-12.5,34.8-11.5,48.2c0.8,10.7-1.7,30.9-2,42.5c20.5,33.1,68.8,110.5,73.6,110.5
			c10.9-24.4,47.7-53.5,50.7-78.3s-12.8-122.9-14.3-152.8c-1.5-29.8,15.5-76,15.5-103.9s41.5-246.5,42-262.9
			c0.4-13.1,4.5-51.1,3.5-63.2c-0.8,6.8-10.8,34.7-20,50.2c-11.5,19.4-53,85.5-57.5,100.9c-4.5,15.4-14,16.4-22,13.4
			c-8-3-39.9-10.8-57.4-10.8c0.5-26.9-6.6-77.9-7-94.2c-0.5-20.4,4.9-56-17.6-78.9s-61-48.2-104.5-34.8s-81,60.6-83,92.4
			s1,77,16.5,89.4s25,11.4,26,20.4c6.7-6.6,20-22.8,20-34.3c0-14.4,0-29.3,16.5-28.8s48.5,4,64-16.9s28-41.2,39.5-33.8
			s20.5,22.4,24,68.1c2.8,36.6,2.3,52.6,2.3,61.5c2.7,31.2-16.2,94.3-23.8,99.5c-9.5,6.5-21.5,23.4-67.5,4.5s-50.8-65.9-66.5-68.1
			c-16.6-2.3-32.8-16.2-35.8-30.6s-0.1-25.9,7.4-31.3c-1-2.5-4.4-6.5-10-2.5c-7,5-6.2,28.7-1.7,39.6c4.5,10.9,16.2,21.8,21.2,24.8
			c2.8,14.9-8.7,19.1-15.5,35.3s11.9,44.8-38.5,73s-69,80.7-72,103.4c-4.3,27.3-10.4,88.5,0,114.3c13,32.3,43.5,87.5,43.5,118.8
			s6.5,124.7-8,156s-48.5,68.1-50,153.1s14.7,183.2-37.5,292.1c-10.8,22.6-56.2,154.9-69.2,178.8c-10.4,19.1-17.9,45.9-59.1,62.2
			c50.5,5.4,87.8-56.7,115-94.8s117.3-132.9,140.6-151.2c38.9-30.6,106.1-63.9,143.1-74.8c32.8-25.1,33.9-67.7,35.5-90.4
			c4.3,19.8,2.8,106.6,72.7,119.1c52.9,4.4,133.8,0,190.8-28.7c-6.2,10.1-33.9,23-68.7,35.3c-43.5,15.4-101,23.5-190.5-11.8
			s-217.1,91.6-233.1,112.5s-34.8,42.3-71.3,101.5c-40.4,64-63.2,70.6-88.2,80.9c80.9,5.1,201.6-22.8,242.4-110.7
			c-18.8-11.4-45.7-40-47.5-49.7s8-6.5,47.5,18.4c39.5,24.8,106.6-15.6,146,0c30.3-25.2,91.5-72.2,93.5-58.6
			c2,13.5-61.5,65.6-93.5,89.9c-14.8,8-46.1,34.3-52.5,76s-57.3,123.7-82,159.5c-43.2,46.7-144.7,138-205.5,129.7
			c2.2,28.8,18.4,103,66,169c59.5,82.5,99.3,63,140.2,72.1c22.6,5,37.1,50.9,26.3,80.5c28.6-49.8,104.7-101.7,159-127.7
			c88.3-42.4,193-196.8,198.5-298.7c5.5-101.9,29-284.6,62-310.1c-13.6,41.3-22.2,64.7-21.7,123.6c0.5,60.3,21.7,170.6,21.7,198.4
			s13,100.1-20.2,140.5c0,0,11.3-56.6,9.2-80c-2.1-23.4-11.3-77.2-11.3-77.2l-26.1-6.7c2.2,34.1,5.2,111.2,0,146.6
			c-5.2,35.4-24.6,45.6-26.9,49.1c37.5,3.5,93-26.2,103.4-79.4c-6.3,38.9-44,116.5-144,115.3c6,14.9,25.2,48.1,54,61.6
			s35,51.7,34.5,69.1c42.7-12.1,130.6-47,141-89.9c13-53.7,38.5-39.3,54-107.3c15.5-68.1,24.5-141.6,34-129.7s0,92.9-17,140.1
			c-13.6,37.8-41.7,80.3-54,96.9c28-26.5,90.6-85.1,117-107.3c33-27.8,103.5-45.7,96.5,10.4c13.8-6.3,45.7-25.7,67.7-54.6
			l130.6,67.9c64.8,39.3,198,124,213,148c18.7,30,134.1,113,161.7,76S2366.3,2300.3,2349.6,2284.3z M1428.6,455.3
			c-13.3,1.2-25.3-18.3-20.3-22s22.8-0.5,29.1,5.8C1440.2,442,1441.9,454,1428.6,455.3z M1437.3,355.7c20-8.9,34.1-2.5,34.1-2.5
			c17,12.9-27,19.9-41.5,17.8C1415.3,368.9,1426.1,360.7,1437.3,355.7z M1417,386c10.4,1.3,36.2-1.9,36.2-1.9
			c7.5-1.7,20.7-0.8,13.2,12c-7.5,12.9-40.7,6.9-56.1,1.1C1395,391.4,1408.9,384.9,1417,386z M1403.6,409.6
			c8.6-2.7,9.2,1.7,19.2,2.1s31.5-6.2,27,5.8c-4.6,12-28.6,13.7-44.8,5C1388.7,413.8,1403.6,409.6,1403.6,409.6z M1480.5,986.1
			c-24,0-82.5-3.5-97.5,8s-57,79-73.5,48c-15.7-29.6,37.1-107.1,86.4-133.1c0.4-0.2-33.2,2.3-55.8,14.6
			c-0.5-21.8-6.2-99.5-9.4-125.6c1.6-12.7,8.1-31.3,26.1-34.1c18.5-2.8,46.5,8.8,62.2,17.1c7,22.1,15.1,53.5,12.9,70
			c-2.8,20.8-17,34.8-30.5,51.1c14.5-10.5,44.3-43.5,59.5-51.1c1.2,36.5,12.4,112,48,122C1507.5,977.4,1499.7,986.1,1480.5,986.1z
			 M1517.7,968.6c-22.2-4.4-54.1-28.7-47.9-134.1c0,0-31,7.3-23.1-49.8c3.1-22.7,10.2-33.9,17.2-39.1c2.9,3,8.1,8.8,9.9,14.1
			c3.1,8.9,8.7,18.9,17,28.1c21.8-4.9,39.7-30.5,64.7-33.5c24.9-3,33.4-5.5,50.4,3s48.8,60.7,42.1,84.4c0.2,0,0.3,0,0.4,0
			c-24.2,44.4-52,92.7-97.5,117.2C1540.7,964.1,1529.3,968,1517.7,968.6z M1183.1,1440.9c0,0-5.1-27.9,17.6-86.8
			c22.8-58.8-21.3-173.6-21.3-173.6s16.9,18.4,35.3,62.5C1245.1,1315.9,1183.1,1440.9,1183.1,1440.9z M1398.7,1307.2
			c8.8-0.5,10-5.4,16.6-4.5c2,2.1,5.1,6.9,7.7,7.2c21.8,2.7,49,3,64.3-23.6c14.7-25.5-4.6-59.9-4.1-81.4c5.2,1.1,10.6,1.4,16,0.6
			c7-1.1,13.4-3.5,19.4-6.9c6.1,7.3,10.3,16,12.5,25.1c4.8,19.1,0,39.1-8.9,56.3c-5.5,10.7-12.2,21.1-21.4,28.9
			c-1.5,1.4-4,3.2-5.6,4.4c-22,14.9-49.9,15.6-75.8,10.4C1402.2,1314.8,1385.1,1308,1398.7,1307.2z M1419.2,1610.7
			c-45.6,9.6-82.4-5.1-82.4-5.1s101.5,8.1,143.4-44.9C1480.2,1560.7,1464.8,1601.2,1419.2,1610.7z M1543.6,1918.7
			c-37.2,55.9-58.5,223.5-58.5,223.5c-5.3-89.1,59.9-263.4,77.1-321.9c17.3-58.5,13.3-187.6,13.3-187.6
			C1604.8,1743.1,1580.9,1862.9,1543.6,1918.7z M2260.8,2328.3c-36.5-19-166-128.4-216.2-154.4c-38.3-19.8-124.3-68.3-165.5-96.1
			c22.5-42.1,24.3-118.9,93.6-108.2c-19.3-23.5-72.2-81.6-129-125.7c-33.7-26.2-64-70.6-94-117c16.7,16.3,54.1,53.7,74.3,77.4
			c25.6,30,123.3,95,138,119s34.5,72,68,102c33.5,30,105.5,92,105.5,123c0,24.8,0,41.7,0,47c11.2-3.9,29.3-11.4,48.4-21.2
			c11.1,14.5,27.3,31.4,45.8,39.3c32.5,14,83,55.7,92.2,67.7C2336.3,2300,2297.3,2347.3,2260.8,2328.3z"/>
		<path d="M1179.8,2299.4c0.7,25.5-1.4,78.4-3.5,87c18,0.8,37.3,1.2,42.4-38s-0.5-61.3-3.9-67.5L1179.8,2299.4z"/>
		<path d="M1375.1,2264.2c-39.5-14.4-49.6-74.6-49.6-85.1c-6.6,14-25.8,40.5-40.2,51.6c9.7,21.5,38.1,64.3,73.2,71.1
			s49.1-3.5,51.8-9.5C1405.3,2285.2,1396.7,2272,1375.1,2264.2z"/>
	</g>
</g>
</svg>
