<?xml version="1.0" encoding="utf-8"?>
<!-- Generator: Adobe Illustrator 26.3.1, SVG Export Plug-In . SVG Version: 6.00 Build 0)  -->
<svg version="1.1" id="Layer_1" xmlns="http://www.w3.org/2000/svg" xmlns:xlink="http://www.w3.org/1999/xlink" x="0px" y="0px"
	 viewBox="0 0 1920 1080" style="enable-background:new 0 0 1920 1080;" xml:space="preserve">
<style type="text/css">
	.st0{fill:#FFFFFF;}
	.st1{fill:#DD3333;}
	.st2{font-family:'Arial-BoldMT';}
	.st3{font-size:74.6811px;}
</style>
<g>
	<path class="st0" d="M294.9,555.1l26.7-24.2l-2.7,0.1c-7.5,0.3-15.6,2.2-24.1,5.7c-8.4,3.5-18,8.8-28.4,15.8
		c-10.2,6.9-27.4,21.5-51,43.3c-3.4-9.6-8.2-17.5-14.3-23.5c-6.5-6.4-13.9-9.6-21.9-9.6c-7.1,0-13.2,3.2-17.9,9.4
		c-4.7,6.1-7.1,13.7-7.1,22.6c0,14,6.4,27.3,19.1,39.6c-4.8,4.4-11.7,8.9-20.6,13.4c-9.4,4.7-18.4,7.1-26.8,7.1
		c-7,0-13.3-1.7-18.7-5.1c-5.3-3.3-7.9-7.1-7.9-11.5c0-1.1,0.2-2.2,0.7-3.2c0.9,4.8,4,5.9,6.6,5.9c1.9,0,3.5-0.7,4.9-2
		c1.3-1.3,2-2.9,2-4.8c0-2.1-0.8-3.9-2.3-5.4s-3.4-2.3-5.6-2.3c-2.4,0-4.5,1-6.5,2.9c-1.9,1.9-2.9,4.6-2.9,7.9c0,5.9,3,10.8,9,14.7
		c5.8,3.8,12.4,5.7,19.5,5.7c16,0,33.1-7.2,50.8-21.4c8,5.6,17.1,9.4,27.1,11.3l-5.7,8.2h12l4.9-6.9c10.7-0.8,19.5-4,26.2-9.5
		c2.1-1.7,4-3.3,5.8-4.7l-3.3,3.4c-4.3,4.4-6.4,8.6-6.4,12.6c0,2,0.6,3.6,1.8,4.7c1.2,1.2,2.6,1.8,4.2,1.8c5.3,0,14.2-5.5,26.9-16.6
		c-2.9,3.9-4.3,7.4-4.3,10.5c0,2,0.6,3.6,1.7,4.7c1.2,1.2,2.5,1.8,4.1,1.8c1.9,0,4.4-0.8,7.8-2.6c3.3-1.7,9.9-6.8,20.1-15.7l0.8-0.7
		l-2-2l-0.7,0.6c-6.8,6-12.4,10.4-16.4,13.2c-3.9,2.7-7,4.1-9.4,4.1c-2.2,0-2.2-1-2.2-1.6c0-0.3,0.3-1.5,4-5.7l5.8-6.5
		c4.6-5.2,11-11.7,18.8-19.3l1.8-1.7h-11.6l-0.3,0.3c-3.3,3-6.5,5.9-9.6,8.7L266.3,639c-4,3.8-8.4,7.3-13.2,10.5
		c-4.7,3.1-8.3,4.7-10.6,4.7c-0.7,0-1.3-0.2-1.7-0.7c-0.6-0.6-0.7-1-0.7-1.3v-0.4c0.3-0.6,0.9-1.7,2.5-3.4l19.4-20
		c3-2.9,5.3-5.3,7-7l1.6-1.7h-10.9l-0.3,0.2c-2,1.3-4.3,3.2-7,5.6c-2.6,2.4-7.3,6.3-13.9,11.7c-5.9,4.9-13.4,7.9-22.1,8.7
		c6.6-9.4,18.3-24.1,34.9-43.6C268.3,581.5,283.2,565.7,294.9,555.1z M164.4,576.3c4.7-5.2,10.7-7.8,17.7-7.8c6.8,0,13.1,3,18.8,8.9
		c5.7,5.8,9.7,12.8,12.1,20.8c-3.5,3.8-9.6,9.6-18.1,17.5c-8.4,7.7-14.9,13.4-19.5,16.9c-12-11.1-18.1-23.3-18.1-36.3
		C157.2,588.2,159.6,581.5,164.4,576.3z M264.1,575.1c-20.1,20.1-37.8,40.5-52.6,60.4c3.9-10,5.9-18.9,5.9-26.6
		c0-3.4-0.4-6.8-1.2-10.1c24.1-23.2,44-39.7,59.1-49c13.6-8.5,25.8-13.6,36.3-15.3C299.8,541.7,283.9,555.3,264.1,575.1z
		 M213.7,601.2c0.5,2.8,0.8,5.5,0.8,8c0,10.5-3.5,22.5-10.3,35.8c-4.5-0.6-9.5-2-14.8-4.2c-5-2-9-4.2-11.9-6.4
		C188,625.8,200.1,614.6,213.7,601.2z"/>
	<path class="st0" d="M481.7,579.9c12.7-6.1,22.5-12.3,29-18.5c6.8-6.4,10.1-12,10.1-16.9c0-2.1-0.9-3.8-2.7-5.3
		c-1.7-1.4-4-2.1-6.6-2.1c-8.2,0-19.3,4.9-33,14.6c-13.5,9.6-25.6,22.8-36,39.2c-15.2,3.7-27,5.6-35.2,5.6
		c-11.4,0-20.1-2.2-25.9-6.5c-5.8-4.3-8.7-9.2-8.7-14.8c0-8.8,6-17.9,17.7-27c11.8-9.1,27.9-13.8,47.8-13.8c4.3,0,8.8,0.3,13.5,0.9
		l0.9,0.1l0.6-2.8l-1.1-0.1c-5.3-0.5-10.4-0.8-15.3-0.8c-20.4,0-36.8,4.2-48.9,12.6c-12.2,8.4-18.4,18.6-18.4,30.1
		c0,7,3.3,13,9.8,17.8c6.4,4.7,15.6,7.1,27.3,7.1c9.7,0,20.9-1.6,33.3-4.9c-11.1,16.4-20.4,28.4-27.6,35.8
		c-7.5,7.7-16.1,13.6-25.3,17.5c-9.3,3.9-18.9,5.9-28.6,5.9c-7.1,0-12.6-1.2-16.3-3.6c-3.6-2.4-5.4-5.4-5.4-9.2
		c0-1.3,0.3-2.4,0.9-3.4c0.4-0.6,0.7-1,0.9-1.1c0,0.2,0,0.4,0,0.5c0,1.3,0.6,2.4,1.7,3.4c1.1,0.9,2.4,1.4,3.9,1.4
		c1.7,0,3.1-0.6,4.3-1.7c1.2-1.2,1.8-2.6,1.8-4.2c0-1.8-0.7-3.2-2.1-4.3c-1.3-1-2.9-1.5-4.8-1.5c-2.8,0-5.2,1.1-7.2,3.3
		c-1.9,2.1-2.9,4.8-2.9,7.8c0,4.8,2.4,8.7,7,11.5c4.5,2.8,10.6,4.2,18.2,4.2c15.8,0,31.5-4.3,46.7-12.9c15.1-8.5,31-26.2,47.1-52.7
		C459.4,589.6,469.3,585.9,481.7,579.9z M471.8,564.3c8.1-9,15.6-15.4,22.3-18.8c6.6-3.4,12.5-5.2,17.4-5.2c1.9,0,3.4,0.4,4.3,1.3
		c1,0.9,1.4,1.9,1.4,3.2c0,6.1-7.1,13.9-21.1,23.2c-13.5,9-27.6,15.6-42,19.6C458.5,580.4,464.4,572.6,471.8,564.3z"/>
	<path class="st0" d="M631.5,641.9L631.5,641.9c-4.7,4-8.9,6.9-12.6,8.8c-3.6,1.8-6.3,2.7-8,2.7c-0.5,0-0.9-0.2-1.2-0.5
		c-0.4-0.4-0.5-0.7-0.5-0.9c0-0.3,0.2-1,1.3-2.3c1-1.1,3.6-3.5,7.8-7.1c4.3-3.7,7.3-6.8,9-9.3c1.7-2.6,2.6-5.1,2.6-7.6
		c0-2.7-1.2-6-7-6c-4.7,0-12.4,4.3-23.2,13.2c1.9-3,2.8-5.7,2.8-8.2c0-1.6-0.5-2.9-1.6-3.9c-1-0.9-2.3-1.4-3.7-1.4
		c-5.3,0-14.7,5.7-28.9,17.6c-1.8,1.7-3.6,2.5-5.3,2.5c-1.1,0-2.1-0.3-2.9-1c5.1-6,7.5-10.7,7.5-14.1c0-3.7-2.1-5.7-6-5.7
		c-3.5,0-8.3,1.3-14.1,3.9c-5.9,2.6-11.1,6.3-15.6,10.9c-1.3,1.3-2.4,2.8-3.4,4.2c-12.4,10.9-21.1,16.5-25.7,16.5
		c-1.9,0-2.2-0.8-2.2-1.9v-0.7c0.3-1.3,2.3-4.7,9.6-13.4l8.8-10.5l7-7.7c3.4-3.7,5.9-6.4,7.3-8.1c6-1.8,14.5-6,25.4-12.6
		c11.1-6.7,20.5-13.5,28-20.2c7.8-7,11.6-12.2,11.6-15.9c0-1.5-0.7-2.8-2-3.9c-1.3-1.1-2.8-1.7-4.7-1.7c-4.6,0-10.1,2.3-16.8,7.1
		c-6.5,4.6-14.4,11.1-23.5,19.4s-18.7,17.9-28.6,28.5c-0.8,0.8-1.8,1.5-2.9,2c-1.3,0.6-3.1,1.7-5.3,3.3s-9.7,7.8-22.7,18.9
		c-8.8,7.5-14.8,12.3-17.8,14.3c-3.6,2.4-5.4,2.9-6.2,2.9c-0.5,0-1-0.2-1.5-0.5c-0.3-0.2-0.6-0.5-0.6-1.4c0-0.8,0.6-2.5,3.4-5.3
		l26.2-27.4h-10.5l-4.9,5.1c0-2-0.9-5.1-6-5.1c-6.6,0-14.7,3-24.2,8.8c-9.6,5.9-14.5,12.5-14.5,19.5c0,2.6,0.6,4.7,1.7,6.4
		c1.2,1.8,2.9,2.7,5.1,2.7c4.2,0,11.3-4,21.7-12.3c-1.1,2.3-1.7,4.3-1.7,6.1c0,1.6,0.5,3.1,1.4,4.3c1,1.3,2.4,1.9,4.1,1.9
		c1.8,0,4.2-1,7.5-3c3.1-1.9,9.3-6.8,18.8-14.9l17.4-14.4c0.7-0.6,1.4-1.2,2-1.7c-2,2.2-4.3,5-7.1,8.3c-6.9,8.5-10.3,14.8-10.3,19.4
		c0,1.8,0.6,3.4,1.9,4.8c1.3,1.3,2.8,2,4.5,2c5,0,12.7-4.4,23.4-13.5c-0.4,1.5-0.6,3.1-0.6,4.6c0,2.4,0.7,4.4,2,5.8
		c1.4,1.4,3.1,2.2,5,2.2c3.5,0,7.7-1.6,12.8-4.8c4.7-3,9.2-6.6,13.4-10.9c1.3,1.1,2.9,1.6,4.7,1.6c2.5,0,5-1.1,7.3-3.3
		c13.4-11.3,22.5-17,26.8-17c1.5,0,1.5,0.5,1.5,0.9c0,0.2-0.3,1.6-5.4,6.8l-25.9,25.8h11.5l0.3-0.3c10.2-9.7,19.2-17.7,26.9-23.8
		c7.5-6,13.4-9,17.4-9c2.5,0,2.5,0.9,2.5,1.4s-0.6,2.4-6.5,7.3l-4,3.4c-3.5,3-5.7,5-6.6,6.1c-1,1.1-1.8,2.5-2.6,4.1
		c-0.8,1.7-1.2,3.3-1.2,4.9c0,1.8,0.6,3.3,1.7,4.5c1.1,1.2,2.5,1.9,4.1,1.9c6.3,0,15.6-5.6,28.5-17.1l0.8-0.7l-2-2L631.5,641.9z
		 M532.2,653.8c-0.8,0-1.5-0.3-2.2-0.8c-0.6-0.5-0.9-1-0.9-1.5c0-1.8,2.3-6.1,13.1-16.9c8.7-8.7,15.2-13,19.4-13
		c0.8,0,1.5,0.3,2.2,0.8c0.6,0.5,0.9,1.1,0.9,2c0,1.9-0.9,4.2-2.7,6.9c-1.9,2.8-4.6,6.1-8,9.7c-3.4,3.6-7.4,6.6-11.8,9.1
		C537.9,652.6,534.5,653.8,532.2,653.8z M591.4,561c1.1,0,2,0.3,2.7,0.9c0.6,0.5,1,1.1,1,1.7c0,1.9-1.8,5.9-10.4,13.8
		c-7.1,6.5-16.2,13.1-27.3,19.6c-8.7,5.1-15.4,8.7-20.2,10.7c4.3-5.1,10.7-12.1,19.2-20.9c10.2-10.6,17.9-17.7,22.8-21
		C584,562.6,588.1,561,591.4,561z M453.1,635c9.1-8.2,16.1-12.4,20.7-12.4c3,0,3,1.5,3,2.2c0,1.7-0.7,3.6-2.1,5.6
		c-1.5,2.1-5,5.6-10.6,10.4c-5.6,4.8-10.3,8.3-14.2,10.4c-4.6,2.6-6.8,3.1-7.9,3.1c-0.9,0-1.5-0.2-2-0.7s-0.7-1-0.7-1.5
		C439.4,649.9,441.7,645.2,453.1,635z"/>
	<path class="st0" d="M772.1,572.1h-10l-54.6,54.2c0-0.1,0-0.2,0-0.3c0-1.7-0.7-3.1-1.9-4.2c-1.2-1-2.8-1.5-4.6-1.5
		c-3.9,0-9.1,1.5-16,4.6c-6.8,3.1-12.3,6.8-16.3,11.2c-4,4.5-6.1,9-6.1,13.5c0,2.2,0.6,4.1,1.8,5.5c1.2,1.5,2.9,2.3,5.1,2.3
		c1.7,0,3.6-0.4,5.7-1.1c2.1-0.7,5.5-2.8,10.3-6.3c2.5-1.8,4.7-3.5,6.5-5c-1.4,2.6-2.1,4.8-2.1,6.8c0,1.7,0.6,3.1,1.8,4.2
		c1.1,1,2.5,1.5,4.1,1.5c1.7,0,3.9-0.8,6.6-2.3c2.6-1.5,6.9-4.8,12.8-9.7l1.7-1.4c-0.5,1.6-0.8,3.2-0.8,4.8c0,5.5,2.8,8.4,8.2,8.4
		c3.6,0,8.3-1.4,14.3-4.3c5.8-2.8,12.4-7.4,19.4-13.6l0.8-0.7l-2-2l-0.7,0.6c-7.4,6.3-13.9,10.9-19.4,13.5
		c-5.4,2.6-9.6,3.9-12.5,3.9c-1.2,0-2.2-0.4-3-1.1c-0.8-0.7-1.2-1.4-1.2-2.2c0-1.1,1.1-4,8.4-11.3c6.9-0.8,13.3-2.8,18.9-6
		c6.1-3.4,9-6.6,9-9.9c0-1.1-0.5-2-1.4-2.7s-1.9-1-3-1c-5.3,0-12.4,2.9-21.7,8.9c-3.6,2.4-6.6,4.8-8.8,7.3l0,0l-0.7,0.6
		c-8,7-13.9,11.7-17.4,14c-4.2,2.8-6.3,3.3-7.3,3.3c-0.6,0-1.1-0.2-1.6-0.6c-0.4-0.3-0.6-0.7-0.6-1.1c0-0.5,1.1-3.4,14.5-16.9
		L772.1,572.1z M680.7,635.5c9.3-8.1,16.2-12.2,20.6-12.2c2.8,0,3.1,1.3,3.1,2.6c0,1.9-1.2,4.3-3.5,7c-2.4,2.9-6.4,6.5-11.9,10.6
		c-5.5,4.2-9.6,7.1-12.2,8.6c-2.5,1.5-5,2.2-7.4,2.2s-2.8-1-2.8-2.1C666.8,650.1,669.2,645.5,680.7,635.5z M753,623.8
		c0,0.7-0.5,2.3-4.1,5.2c-2.9,2.3-6.5,4.3-10.8,5.7c-2.6,0.9-4.7,1.5-6.3,1.9c2.1-2.2,4.6-4.4,7.4-6.5c3.7-2.9,6.5-4.8,8.2-5.7
		s3.2-1.3,4.6-1.3C753,623.2,753,623.5,753,623.8z"/>
	<path class="st0" d="M935.1,578.7c0-3.5-0.6-7.1-1.7-10.7l6.1-3.9c2.1-1.4,3.9-2.6,5.5-3.5l7-4.2l-1.3-2.5l-10.9,6.7
		c-3.1,1.9-5.6,3.4-7.4,4.7c-4.2-10.7-11.1-18.7-20.6-23.8c-9.8-5.2-21.2-7.9-33.9-7.9c-13.6,0-27.3,2.3-40.6,6.9
		c-13.4,4.6-24.1,11.3-31.8,20c-7.8,8.8-11.7,18.3-11.7,28.4c0,7.2,2.9,13.5,8.8,18.7c5.8,5.2,13.6,7.9,23.1,7.9
		c16.3,0,31.8-4.5,45.9-13.4c14.3-9,21.6-18.5,21.6-28.4c0-3.5-1.7-6.9-5-10.2s-8-4.9-13.8-4.9c-10.8,0-22.3,4-34.1,11.7
		c-11.7,7.8-21.7,17.9-29.7,30.1l-0.5,0.8l2.2,1.6l0.6-0.9c8.5-13,18.6-23.1,29.8-30.2c11.2-7,21.9-10.6,31.6-10.6
		c4.8,0,8.7,1.4,11.6,4c2.9,2.7,4.3,5.5,4.3,8.4c0,8.9-6.8,17.7-20.2,26.1c-13.6,8.5-28.5,12.8-44.5,12.8c-8.4,0-15.1-2.1-20-6.3
		c-4.8-4.2-7.2-8.5-7.2-12.9c0-7,4.4-15.5,13.1-25.2c8.8-9.8,19.1-17.6,30.7-23.2c11.6-5.6,24-8.5,37-8.5c11.6,0,22.2,2.6,31.6,7.9
		c9.1,5.1,15.5,12.6,19.2,22.6c-13.2,8.5-28.4,23.4-45.1,44.1c-7.9,9.7-13.4,16.2-16.4,19.2s-6.4,6-10.2,8.8
		c-3.8,2.8-7.4,5-10.7,6.5c-3.3,1.5-6.8,2.8-10.4,3.7c-4,1-5.1,1.2-5.4,1.2l-12.8-4.3c-9.6-2.8-18-4.2-25-4.2c-3.7,0-15,0-15,6.7
		c0,2.5,2,4.5,6.1,6c3.7,1.4,9.6,2.1,17.5,2.1c9.3,0,18.2-1,26.3-3c6.6,2.4,14.3,3.6,22.9,3.6c16,0,30.6-4,43.3-12
		c12.7-8,22.6-18.3,29.6-30.9C931.5,601.9,935.1,589.8,935.1,578.7z M856.2,654.3c-0.8,0-1.7,0-2.6-0.1c-0.8,0-1.7,0-2.5-0.1
		c-1-0.1-1.9-0.2-2.7-0.3l-2.7-0.3l-7-1.4c3.3-0.9,7.9-2.4,13.9-4.7c4.5-1.7,9-3.8,13.4-6.3c4.1-2.3,8-5,11.8-8c3.2-2.5,6-5.2,8.4-8
		c2.6-3,6.1-7.9,10.4-14.5c5.7-8.7,10.2-15.3,13.5-19.6c3.8-5,7.5-9.2,10.9-12.5c3.1-3.1,6.5-6,10.1-8.7c0.9,3,1.4,5.9,1.4,8.8
		c0,11.1-3.5,22.9-10.4,35.1c-6.9,12.2-16.6,22.2-28.7,29.5C881,650.6,868.6,654.3,856.2,654.3z M791.9,645.1
		c9.9,0,20.7,2.3,32.1,6.7c-5.9,1.3-13,2-21.2,2c-7.7,0-13.2-0.7-16.3-2c-3.9-1.7-4.3-2.9-4.3-3.3
		C782.1,645.7,787.4,645.1,791.9,645.1z"/>
	<path class="st0" d="M1106.8,636.5l-0.7,0.6c-7.4,6.3-13.9,10.9-19.4,13.5c-5.4,2.6-9.6,3.9-12.5,3.9c-1.2,0-2.2-0.4-3-1.1
		c-0.8-0.7-1.2-1.4-1.2-2.2c0-1.1,1.1-4,8.4-11.3c6.9-0.8,13.3-2.8,18.9-6c6.1-3.4,9-6.6,9-9.9c0-1.1-0.5-2-1.4-2.7s-1.9-1-3-1
		c-5.3,0-12.4,2.9-21.7,8.9c-3.6,2.4-6.6,4.8-8.8,7.3l0,0l-3.8,3.2c0.9-2.2,1.4-4.6,1.4-7c0-2.1-0.2-4.5-0.6-7.1
		c-0.4-2.5-0.6-4.3-0.6-5.5c0-1.3,0.3-2.4,0.9-3.2c0.4-0.6,1.6-1.9,4.6-4.3l0.7-0.5l-1.6-2.6l-33.1,27.7l-5.7,4.8
		c-4.7,4-8.9,6.9-12.6,8.8c-3.6,1.8-6.3,2.7-8,2.7c-0.5,0-0.9-0.2-1.2-0.5c-0.4-0.4-0.5-0.7-0.5-0.9c0-0.3,0.2-1,1.3-2.3
		c1-1.1,3.6-3.5,7.8-7.1c4.3-3.7,7.3-6.8,9-9.3c1.7-2.6,2.6-5.1,2.6-7.6c0-2.7-1.2-6-7-6c-4.7,0-12.4,4.3-23.2,13.2
		c1.9-3,2.8-5.7,2.8-8.2c0-1.6-0.5-2.9-1.6-3.9c-1-0.9-2.3-1.4-3.7-1.4c-5.3,0-14.7,5.7-28.8,17.5c-8.8,7.5-14.8,12.3-17.8,14.3
		c-3.6,2.4-5.4,2.9-6.2,2.9c-0.5,0-1-0.2-1.5-0.5c-0.3-0.2-0.6-0.5-0.6-1.4c0-0.8,0.6-2.5,3.4-5.3l26.2-27.4h-10.5l-4.9,5.1
		c0-2-0.9-5.1-6-5.1c-6.6,0-14.7,3-24.2,8.8c-9.6,5.9-14.5,12.5-14.5,19.5c0,2.6,0.6,4.7,1.7,6.4c1.2,1.8,2.9,2.7,5.1,2.7
		c4.2,0,11.3-4,21.7-12.3c-1.1,2.3-1.7,4.3-1.7,6.1c0,1.6,0.5,3.1,1.4,4.3c1,1.3,2.4,1.9,4.1,1.9c1.8,0,4.2-1,7.5-3
		c3.1-1.9,9.3-6.8,18.8-14.9c13.4-11.3,22.5-17,26.8-17c1.5,0,1.5,0.5,1.5,0.9c0,0.2-0.3,1.6-5.4,6.8l-25.9,25.8H981l0.3-0.3
		c10.2-9.7,19.2-17.7,26.9-23.8c7.5-6,13.4-9,17.4-9c2.5,0,2.5,0.9,2.5,1.4s-0.6,2.4-6.5,7.3l-4,3.4c-3.5,3-5.7,5-6.6,6.1
		c-1,1.1-1.8,2.5-2.6,4.1c-0.8,1.7-1.2,3.3-1.2,4.9c0,1.8,0.6,3.3,1.7,4.5s2.5,1.9,4.1,1.9c4.8,0,11.4-3.3,20-10c-0.7,1-1,2.1-1,3.4
		c0,2.1,0.9,3.9,2.5,5.2s3.5,1.9,5.8,1.9c7.2,0,16.3-4.3,27.1-12.9c-0.5,1.6-0.8,3.2-0.8,4.8c0,5.5,2.8,8.4,8.2,8.4
		c3.6,0,8.3-1.4,14.3-4.3c5.8-2.8,12.4-7.4,19.4-13.6l0.8-0.7L1106.8,636.5z M1103.1,623.8c0,0.7-0.5,2.3-4.1,5.2
		c-2.9,2.3-6.5,4.3-10.8,5.7c-2.6,0.9-4.7,1.5-6.3,1.9c2.1-2.2,4.6-4.4,7.4-6.5l0,0c3.7-2.9,6.5-4.8,8.2-5.7s3.2-1.3,4.6-1.3
		C1103.1,623.2,1103.1,623.5,1103.1,623.8z M1036.1,652.3c0.1,0,0.1,0,0.2,0c1.1,0,2.2-0.5,3.2-1.5s1.5-2.1,1.5-3.4
		c0-1-0.4-1.8-1.1-2.6c-0.7-0.7-1.6-1.1-2.7-1.1c-0.6,0-1.2,0.1-1.8,0.3c1.8-1.5,3.7-3.1,5.6-4.8l23.6-19.5
		c-0.2,1.2-0.4,2.4-0.5,3.7c-0.6,7.2-3.7,14.2-9.4,20.7c-5.6,6.5-10.6,9.8-14.9,9.8C1037.4,654,1036.4,653.2,1036.1,652.3z
		 M931.6,635c9.1-8.2,16.1-12.4,20.7-12.4c3,0,3,1.5,3,2.2c0,1.7-0.7,3.6-2.1,5.6c-1.5,2.1-5,5.6-10.6,10.4
		c-5.6,4.8-10.3,8.3-14.2,10.4c-4.6,2.6-6.8,3.1-7.9,3.1c-0.9,0-1.5-0.2-2-0.7s-0.7-1-0.7-1.5C917.9,649.9,920.2,645.2,931.6,635z"
		/>
</g>
<text transform="matrix(1 0 0 1 168.2998 736.0546)"><tspan x="0" y="0" class="st1 st2 st3">35 rue Falguières</tspan><tspan x="0" y="73" class="st1 st2 st3">75015 Paris</tspan></text>
</svg>
