<?xml version="1.0" encoding="utf-8"?>
<!-- Generator: Adobe Illustrator 26.3.1, SVG Export Plug-In . SVG Version: 6.00 Build 0)  -->
<svg version="1.1" id="Layer_1" xmlns="http://www.w3.org/2000/svg" xmlns:xlink="http://www.w3.org/1999/xlink" x="0px" y="0px"
	 viewBox="0 0 1920 1080" style="enable-background:new 0 0 1920 1080;" xml:space="preserve">
<g>
	<path d="M1030.6,543.8c-2.6-0.3-6.2,1.5-11.1,5.3c-2.1,1.7-3.8,3.4-5.1,5.3c-4.1,4.5-7,7.6-8.8,9c-2.2,1.9-3.2,2.1-3.6,2.1
		c-0.2,0-0.5-0.2-0.7-0.4c-0.2-0.3-0.3-0.6-0.3-1.1c0-0.7,1.1-3.1,7.9-11.7l33.5-42.6l-4.6-0.3l-28.8,36.4c0-0.1,0-0.2,0-0.3
		c0.1-1.1-0.1-2.1-0.7-2.8c-0.5-0.8-1.3-1.2-2.2-1.3c-1.9-0.1-4.5,0.8-8,2.7c-3.4,1.9-6.2,4.4-8.3,7.4s-3.3,6.1-3.5,9.2
		c-0.1,1.5,0.1,2.8,0.5,3.8c0.5,1.1,1.3,1.7,2.4,1.8c0.8,0.1,1.8-0.1,2.9-0.6c1.1-0.5,2.8-1.8,5.2-4.1c1.3-1.2,2.4-2.4,3.4-3.4
		c-0.9,1.9-1.4,3.6-1.5,5c-0.1,1.1,0.1,2.1,0.6,2.8c0.5,0.8,1.2,1.2,2,1.2c0,0,0.1,0,0.2,0c0.8,0,1.9-0.5,3.2-1.5s3.5-3.1,6.6-6.4
		l0.3-0.3c-0.3,1-0.5,2-0.6,3c-0.2,1.9,0,3.3,0.5,4.3c0.6,1.1,1.5,1.7,2.8,1.8c0.2,0,0.3,0,0.5,0c1.7,0,3.9-0.8,6.7-2.4
		c3-1.7,6.4-4.6,10.2-8.7l0.2-0.3l-0.7-1.4l-0.3,0.6c-4,4.1-7.4,7.1-10.2,8.6c-2.7,1.6-4.8,2.3-6.2,2.2c-0.5-0.1-0.9-0.3-1.3-0.9
		c-0.4-0.6-0.5-1.2-0.5-1.8c0.1-1,1-3.2,4.9-7.8c3.3-0.2,6.5-1.4,9.5-3.3c3-2,4.7-4.2,4.9-6.4c0.1-0.7-0.1-1.2-0.4-1.8
		C1031.7,544.2,1031.2,543.9,1030.6,543.8z M999.6,557.6c-2.8,2.8-4.9,4.7-6.3,5.7c-1.2,0.9-2.4,1.4-3.5,1.3c-0.4,0-0.8-0.2-0.9-0.4
		c-0.4-0.4-0.4-0.8-0.4-1.4c0.2-2.3,2.7-6.2,7.6-11.7c5.8-6.5,8.8-7.9,10.2-7.9c0.1,0,0.1,0,0.2,0c0.5,0,0.8,0.2,1.1,0.5
		c0.2,0.4,0.3,0.9,0.3,1.6c-0.1,1.4-0.8,3.2-2.1,5.1C1004.5,552.4,1002.4,554.8,999.6,557.6z M1028.7,549.8
		c-1.5,1.5-3.4,2.7-5.5,3.6c-1.6,0.6-2.6,0.9-3.3,1.1c1.3-1.6,2.7-3.2,4.4-4.8c2-1.9,3.4-3.1,4.3-3.6c0.8-0.5,1.4-0.7,2-0.7
		c0.1,0,0.1,0,0.2,0c0.1,0,0.1,0.1,0.2,0.1c0,0.1,0.1,0.2,0.1,0.6C1031,547.1,1030.2,548.4,1028.7,549.8z"/>
	<path d="M1113.5,551.5c4.7-8.2,7.7-16.4,8.9-24.2c0.4-2.5,0.5-5.2,0.4-7.8l3.5-2.4c1.2-0.8,2.2-1.5,3-2l3.6-2.3l-0.3-1.6l-6.1,4
		c-1.6,1-2.9,1.9-3.9,2.6c-0.8-7.8-3.1-13.9-7-18.2c-4.1-4.4-9.2-7.2-15.2-8.2c-6.5-1-13.2-0.4-20,1.7c-6.9,2.2-12.7,6.1-17.3,11.6
		c-4.6,5.5-7.5,11.9-8.7,18.9c-0.8,4.9-0.1,9.5,2,13.6s5.6,6.6,10.1,7.3c7.8,1.2,15.6-0.8,23.3-6c7.7-5.2,12.2-11.3,13.3-18.1
		c0.4-2.4,0-4.8-1.2-7.3c-1.2-2.6-3.2-4.1-6-4.5c-5.2-0.8-11,1.1-17.5,5.7c-6.4,4.6-12.3,10.9-17.4,18.9l-0.2,0.3l0.9,1.2l0.4-0.6
		c5.5-8.5,11.4-14.9,17.5-19s11.5-5.7,16.1-5c2.3,0.4,3.9,1.6,5,3.7s1.5,4.3,1.1,6.5c-1,6.4-5.3,12.1-12.6,17
		c-7.4,4.9-14.9,6.8-22.4,5.6c-3.9-0.6-6.9-2.6-8.6-5.9c-1.8-3.3-2.5-6.7-2-9.9c0.8-5,3.9-10.7,9.1-16.9c5.3-6.2,11-10.9,17.2-14
		c6.1-3.1,12.3-4.1,18.4-3.1c5.4,0.9,10.1,3.5,14,7.9c3.8,4.3,6,10.3,6.6,17.7c-7.2,5-16.1,14.3-26.4,27.7
		c-4.8,6.2-8.2,10.4-9.9,12.3s-3.7,3.7-5.8,5.4c-2.1,1.7-4.1,2.9-5.8,3.8c-1.8,0.8-3.5,1.4-5.3,1.8c-1.8,0.4-2.4,0.4-2.6,0.4l-5.5-4
		c-4.2-2.7-8.1-4.3-11.4-4.9c-4.7-0.8-7.4,0.4-7.8,3.3c-0.3,1.6,0.5,3.1,2.2,4.5c1.6,1.3,4.3,2.3,8.1,2.9c4.4,0.7,8.7,0.7,12.7-0.1
		c2.9,2.2,6.4,3.6,10.4,4.2c1.6,0.3,3.1,0.4,4.7,0.4c6,0,11.7-1.9,17.2-5.5C1103,566.2,1108.8,559.7,1113.5,551.5z M1051.4,570.3
		c-3.6-0.6-6.1-1.5-7.4-2.6s-1.8-2.1-1.7-2.9c0.1-0.9,0.5-1.4,1.3-1.8c0.5-0.2,1.1-0.3,1.8-0.3c0.6,0,1.2,0.1,1.9,0.2
		c4.8,0.8,9.8,3.3,14.8,7.5C1059.1,571,1055.5,570.9,1051.4,570.3z M1095.3,569.8c-6.7,4.1-12.9,5.8-18.7,4.9
		c-0.4-0.1-0.8-0.1-1.2-0.3c-0.4-0.1-0.8-0.1-1.1-0.2c-0.4-0.2-0.9-0.3-1.3-0.4l-1.2-0.4l-3.8-1.8c1.7-0.3,4.3-1.1,7.8-2.4
		c2.3-0.9,4.7-2,7-3.4c2.2-1.3,4.4-2.9,6.5-4.7c1.8-1.5,3.4-3.2,4.8-5c1.6-1.9,3.8-5.1,6.5-9.4c3.7-5.7,6.6-10,8.6-12.8
		c2.4-3.2,4.6-5.9,6.6-8c1.8-1.9,3.7-3.7,5.6-5.2c0.1,2.2,0,4.3-0.3,6.4c-1.3,7.8-4.3,15.9-8.9,24.1
		C1107.5,559.3,1101.8,565.6,1095.3,569.8z"/>
	<path d="M1179.9,589.8c3.3,0.5,6.7,0.2,10-1c3.4-1.3,5.6-3,6.3-5c-0.2-0.5-0.2-1.1-0.4-1.6c-0.2-0.6-0.6-1-1.2-1.2
		c-2.4-0.9-6.4,0-12,2.6c-2.5,1.1-4.5,2.5-6.2,4l-1.7,1.1c1-1.4,1.8-3,2.3-4.7c0.5-1.4,0.9-3.1,1.2-4.9c0.4-1.8,0.7-3.1,0.9-3.9
		c0.3-1,0.7-1.7,1.2-2.2s1.5-1.3,3-2.3l0.3-0.2l-0.1-1.8l-21.5,14.2v0.2l-2.9,2.1c-2.9,2.1-5.4,3.6-7.5,4.4c-2.5,1-3.6,1-4.1,0.9
		c-0.1,0-0.3-0.1-0.4-0.4c-0.1-0.3-0.1-0.6,0-0.9c0.1-0.5,0.5-1,1.1-1.6c0.7-0.6,2.4-1.9,5-3.9c2.7-2,4.7-3.7,5.9-5.2
		c1.2-1.5,2.1-3.1,2.6-4.7c0.3-1.3,0.4-2.3,0-3.1s-1.1-1.4-2.2-1.7c-2.2-0.6-6.7,1.4-13.5,6.2c1.6-1.9,2.7-3.8,3.2-5.6
		c0.3-1,0.3-1.9,0-2.6c-0.3-0.8-0.8-1.3-1.5-1.5c-2.5-0.7-7.9,2-16.7,8.3l-0.3,0.2l0.1,0.3c-5,4-8.4,6.5-10.1,7.5
		c-2.2,1.4-3,1.4-3.3,1.4c-0.2,0-0.4-0.2-0.5-0.5c-0.2-0.3-0.2-0.7-0.1-1.3c0.2-0.9,1.1-2.1,2.5-3.5l16.3-15.8l-4.8-1.1l-3,2.9
		c0.2-1.1,0.2-1.9-0.1-2.6c-0.3-0.7-1-1.2-1.9-1.4c-3.2-0.7-7.3,0.4-12.8,3.5c-5.4,3-8.7,7-9.8,11.7c-0.4,1.7-0.5,3.2-0.2,4.4
		c0.3,1.3,1,2.2,2,2.4c2,0.5,6-1.6,12.2-6.2c-1,1.6-1.6,3-1.9,4.3c-0.2,1.1-0.3,2,0,2.9c0.3,1.2,1.1,1.6,1.7,1.8
		c0.1,0,0.3,0.1,0.5,0.1c0.9,0,2-0.4,3.6-1.3c1.8-1,5.4-3.7,11.2-8.3l0.3-0.2l-0.1-0.3c9.9-7,13.6-8.1,14.9-7.8
		c0.3,0.1,0.6,0.2,0.4,1c-0.1,0.4-0.8,1.5-3.9,4.1l-16.5,14l5.2,1.4l0.2-0.2c6.5-5.4,12.2-9.7,16.9-12.9c4.6-3.1,7.8-4.4,9.7-3.9
		c0.4,0.1,0.7,0.3,0.8,0.5c0.1,0.2,0.1,0.5,0,1c-0.2,0.6-1.1,1.9-4.5,4.4l-2.5,1.8c-2.2,1.6-3.6,2.7-4.2,3.3s-1.3,1.4-1.9,2.4
		c-0.7,1-1.1,2-1.4,3.1s-0.3,2.2-0.1,3.1c0.3,1,0.8,1.6,1.6,1.8c0.3,0.1,0.7,0.1,1.1,0.1c2.1,0,5-1.2,8.9-3.6
		c-0.3,0.4-0.6,0.9-0.7,1.5c-0.4,1.3-0.4,2.6,0,3.7c0.5,1.1,1.2,1.9,2.3,2.2c0.7,0.2,1.4,0.3,2.3,0.3c3.1,0,7.2-1.6,12.3-4.7
		c-0.5,0.9-1,1.8-1.3,2.8c-1.6,4.5,0.1,6.1,1.8,6.7c0.6,0.2,1.4,0.3,2.2,0.3c1.4,0,3.2-0.3,5.3-0.9c3.3-1,7.3-3,12-6.1l0.3-0.2
		l-0.4-1.5l-0.6,0.4c-4.8,3.1-8.8,5.1-11.9,6c-3,0.9-5.2,1.1-6.5,0.6c-0.5-0.2-0.8-0.6-1-1.2c-0.2-0.7-0.2-1.3,0-1.9
		C1173.6,595.4,1175,593.5,1179.9,589.8z M1186.8,585.2c2.3-1.3,4-2.2,5.1-2.5c0.9-0.3,1.7-0.4,2.3-0.2c0.2,0.1,0.2,0.2,0.2,0.2
		c0,0.1,0,0.2-0.1,0.6c-0.3,0.9-1.4,2-3.2,3.1c-1.8,1.1-3.9,1.8-6.2,2.1c-1.7,0.2-2.8,0.3-3.5,0.2
		C1183,587.5,1184.8,586.3,1186.8,585.2z M1109.5,579.2c-2.7,1.3-3.7,1.4-4.1,1.3c-0.4-0.1-0.6-0.3-0.7-0.7c-0.3-0.6-0.3-1-0.2-1.4
		c0.5-2.3,3.6-5.8,9.3-10.5c6.1-5.1,9.3-6.4,11-6.4c0.2,0,0.4,0,0.6,0.1c0.5,0.1,0.8,0.3,1,0.6s0.2,0.8,0,1.4c-0.3,1.3-1,2.5-2,3.8
		s-3.3,3.4-6.6,6.1C1114.4,576.2,1111.6,578.1,1109.5,579.2z M1167.8,589.8c-4,3.6-6.9,5.1-8.8,4.5c-0.7-0.2-1.5-0.7-1.2-2.1h0.1
		c0.6,0.2,1.2,0,1.9-0.5c0.6-0.5,1-1.1,1.3-1.9c0.2-0.6,0.2-1.1,0-1.7c-0.2-0.7-0.7-1-1.1-1.1c-0.2-0.1-0.4-0.1-0.7-0.1
		c1.3-0.9,2.6-1.9,4.1-3l0.3-0.2v-0.1l14.1-9.2c-0.4,0.8-0.8,1.7-1.1,2.6C1174.9,581.9,1171.9,586.2,1167.8,589.8z"/>
	<path d="M789,567.5l-0.2,0.6c-1.5,4.3-4.1,7.5-7.9,9.4c-0.1,0-0.1,0.1-0.2,0.1c0.7-7.4,2.4-19.2,5.2-35.2
		c2.9-16.7,5.8-29.7,8.5-38.7l6-20l-1,0.4c-3.3,1.4-6.5,4.1-9.5,7.8s-6,8.8-9,15.2c-2.9,6.3-7,18.5-12.4,36.8
		c-3.8-5.7-7.8-10.2-11.9-13.2c-4.5-3.2-8.6-4.2-12.3-2.9c-3.3,1.2-5.2,4.3-5.9,9.2c-0.6,4.8,0.1,10.2,2.2,16.1
		c3.4,9.4,9.5,17.2,18.3,23.3l0,0c-1.1,3.8-3.2,8.2-6.2,12.8c-3.1,4.6-6.5,7.7-10.3,9c-3.1,1.1-6.3,1-9.6-0.4
		c-3.2-1.4-5.4-3.6-6.5-6.6c-0.3-0.7-0.4-1.5-0.5-2.2c1.2,2.3,2.7,3.2,4.3,2.6c0.9-0.3,1.5-1,1.8-2.1c0.3-1,0.2-2.1-0.2-3.3
		c-0.5-1.3-1.2-2.3-2.2-3.1c-1.1-0.8-2.1-1-3.2-0.6c-1.1,0.4-1.9,1.4-2.3,3c-0.4,1.5-0.2,3.4,0.6,5.5c1.4,3.8,3.9,6.6,7.5,8.2
		c2.1,0.9,4.1,1.4,6,1.4c1.4,0,2.8-0.2,4.2-0.7c7.2-2.6,13.3-10.4,17.8-22.7v0c5,2.4,10,3.3,14.9,3.1l-0.7,6.6l5.6-2.1l0.6-5.5
		c3.8-1.9,6.6-4.7,8.4-8.2l0.4-3.4L789,567.5z M759.3,575L759.3,575c-8.1-5.5-13.8-12.7-16.9-21.5c-2-5.4-2.5-10.4-1.6-14.7
		s2.8-7,6-8.1c0.8-0.3,1.6-0.4,2.5-0.4c2.4,0,5.1,1.1,8,3.3c4,3,7.6,7.1,10.6,12.2c0,0,0,0.1,0.1,0.1c-0.8,3.1-2.7,9.9-4.2,14.9
		C762.3,565.7,760.2,572.2,759.3,575z M775.2,578.8l0,0.1c-2.1,0.3-4.6,0.1-7.4-0.5c-2.9-0.7-5.3-1.5-7.1-2.5l-0.1,0l0.3-0.7
		c2.4-6.5,6.7-22.4,8.1-27.6c0,0,0,0,0,0.1c0.9,1.8,1.7,3.6,2.3,5.3c2.6,7,4,14.4,4.1,24.2L775.2,578.8z M776.2,570.5
		c-0.6-7.1-1.9-13.1-3.6-18.1c-0.8-2.3-1.9-4.6-3-6.6c0,0-0.1-0.1-0.1-0.2c5.3-19.3,10.2-33.5,14.7-42.2c4.2-8.2,8.6-13.7,13-16.4
		c-3.7,6.5-7.7,18.4-12,35.6C781.1,539,778.1,555.1,776.2,570.5z"/>
	<path d="M815.2,563.2c-2.2,4.9-4,8.6-5.4,11c-1.7,2.8-2.9,3.7-3.6,3.8c-0.4,0.1-0.6,0.1-0.8-0.1c-0.2-0.2-0.4-0.5-0.5-1
		c-0.1-0.4-0.1-1.4,0.9-4.6l1.6-5.1c1.3-4.1,3.2-9.3,5.6-15.5l0.3-0.9l-5.2,1.3l-0.1,0.2c-1.1,2.4-2.1,4.8-3,7.1l-3.5,8.5
		c-1.2,3.1-2.7,6-4.4,8.8c-2.1,3.3-3.4,4.2-4.1,4.4c-0.2,0-0.5,0.1-0.8-0.3c-0.3-0.3-0.5-0.6-0.6-1l-0.1-0.4c0-0.7,0.2-1.6,0.6-2.8
		l5.7-16c0.9-2.3,1.6-4.2,2.1-5.6l0.3-0.9l-5,1.2l-0.1,0.2c-0.7,1.1-1.5,2.7-2.3,4.6c-0.7,1.6-1.9,4.2-3.5,7.6l-0.4,3.4l0.1,0.1
		l0.3-0.6c0.9-1.9,1.7-3.5,2.4-5l-1.5,4.3c-1.2,3.5-1.5,6.6-0.9,9.2c0.3,1.3,0.8,2.2,1.5,2.9c0.6,0.5,1.2,0.8,1.8,0.8
		c0.2,0,0.3,0,0.5-0.1c2.6-0.6,5.9-5.5,10-15c-0.9,3.3-1.1,6.2-0.5,8.4c0.3,1.3,0.8,2.2,1.5,2.9s1.5,1,2.3,0.8
		c0.9-0.2,2-1.1,3.3-2.7c1.3-1.5,3.5-5.8,6.7-13.1l0.1-0.3l-1.2-1.1L815.2,563.2z"/>
	<path d="M883.7,519.7c3.5-1.9,7.9-5.1,13.2-10.1c5.4-5.1,9.5-10.1,12-14.9s3.6-9,3.1-12.3c-0.2-1.3-0.8-2.5-1.7-3.3
		c-1-0.9-2.1-1.2-3.4-1.1c-1.2,0.2-2.5,0.6-3.8,1.4v0c-3.1,1.9-6.6,5.5-10.5,11.1c-5.2,7.3-9.6,16.8-12.8,28.3
		c-0.1,0.6-0.3,1.1-0.5,1.7v0c-6.8,3.6-12.2,5.7-16.1,6.2c-5.3,0.7-9.7-0.3-12.9-2.9c-3.2-2.7-5.1-6.1-5.6-10.1
		c-0.9-6.3,1.1-13.2,5.9-20.4c4.7-7.2,11.9-11.5,21.3-12.7c2-0.3,4.2-0.4,6.4-0.3h0.5v-1.6h-0.5c-2.5,0-5,0.1-7.4,0.4
		c-9.7,1.3-17.1,5.4-22.1,12.1c-4.9,6.7-6.9,14.1-5.8,22.2c0.7,4.9,2.8,8.8,6.3,11.7s8.1,4,13.7,3.3c4.7-0.6,9.9-2.5,15.5-5.6
		c-3.7,12.5-7.1,21.8-9.8,27.5c-2.8,5.9-6.3,10.6-10.4,14c-4,3.4-8.4,5.4-12.9,6c-3.3,0.5-6-0.1-8-1.5c-2-1.5-3.1-3.5-3.5-6.3
		c-0.1-1-0.1-1.9,0.1-2.7c0.1-0.4,0.2-0.7,0.3-0.8c0,0.2,0,0.4,0,0.5c0.1,0.8,0.5,1.5,1,2.1c0.6,0.6,1.3,0.9,2,0.8
		c0.8-0.1,1.5-0.6,1.9-1.5c0.4-0.8,0.6-1.8,0.4-2.8c-0.2-1.1-0.6-2-1.3-2.7c-0.7-0.6-1.6-0.9-2.5-0.8c-1.4,0.2-2.4,1.1-3.2,2.8
		c-0.7,1.6-0.9,3.4-0.6,5.5c0.4,3.3,1.9,5.8,4.3,7.4c1.9,1.3,4.1,1.9,6.7,1.9c0.8,0,1.6-0.1,2.4-0.2c7.5-1,14.6-5.1,21-12.1
		S878.6,539.4,883.7,519.7L883.7,519.7z M884.8,515.7c0-0.1,0.1-0.2,0.2-0.4c1.3-5,3.2-10.4,5.7-16.1c3-6.9,6-11.9,8.8-14.7
		c1.6-1.6,3.1-2.8,4.6-3.6v0c1.1-0.6,2.1-1,3.1-1.1c0.2,0,0.3,0,0.4,0c0.7,0,1.2,0.2,1.7,0.7c0.6,0.6,0.9,1.4,1.1,2.4
		c0.6,4.4-2,10.4-7.8,17.9c-5.6,7.1-11.7,12.7-18.1,16.5c0,0-0.1,0.1-0.2,0.2C884.5,516.9,884.6,516.3,884.8,515.7z"/>
	<path d="M972.7,554.8c-2.3,2.8-4.3,4.9-6.1,6.1c-2.2,1.6-3.2,1.9-3.8,1.9c-0.1,0-0.3,0-0.5-0.3c-0.2-0.2-0.3-0.5-0.3-0.9
		c0-0.5,0.2-1.1,0.7-1.8c0.5-0.8,1.8-2.5,3.9-5c2.1-2.6,3.6-4.7,4.4-6.5c0.8-1.8,1.3-3.5,1.3-5.2c0.1-3.4-1.8-4.1-3.3-4.1
		c-2.3,0-6.1,3.1-11.4,9.4c1.1-2.3,1.6-4.3,1.7-6.2c0-1-0.2-1.9-0.7-2.5c-0.5-0.7-1.1-1.1-1.8-1.1c-2.6,0-7.2,4-14,12.3l-0.2,0.3
		l0.2,0.3c-0.7,0.9-1.4,1.4-2.1,1.4c-0.6,0-1-0.3-1.4-0.9c2.4-4.4,3.6-7.7,3.5-10.1c-0.1-3.2-1.6-3.9-3-3.8c-1.7,0-4,1-6.8,2.9
		s-5.2,4.5-7.3,7.9c-0.8,1.2-1.4,2.4-1.9,3.7c-6.6,9.4-9.8,11.5-11.2,11.5c-0.3,0-1.1,0-1.1-1.5v-0.5c0.1-1.4,1.5-4.7,4.2-9.9
		l3.9-7.7l3.1-5.6c1.5-2.7,2.6-4.7,3.2-5.9c2.8-1.4,6.8-4.6,11.8-9.5c5.1-5,9.4-10,12.8-14.9c3.5-5.1,5.1-8.7,5-11.3
		c0-0.9-0.4-1.8-1-2.5c-0.7-0.8-1.4-1.2-2.4-1.1c-2.2,0.1-4.8,1.9-7.9,5.4c-3,3.4-6.5,8.2-10.6,14.3c-4,6-8.2,12.8-12.5,20.3
		c0,0-0.2,0.3-0.5,0.8c-0.3,0.5-0.7,0.9-1.1,1.3c-0.6,0.5-1.4,1.3-2.5,2.5c-1,1.2-4.5,5.9-10.3,13.9l-0.2,0.3l0.1,0.1
		c-3.6,5.3-6.1,8.7-7.4,10.2c-1.7,2-2.5,2.2-2.7,2.3c-0.2,0-0.4-0.1-0.6-0.3c-0.2-0.2-0.4-0.6-0.4-1.2c-0.1-1,0.4-2.3,1.4-4.1
		l10.9-19.9l-4.9,0.4l-2,3.7c-0.1-1.1-0.4-1.9-0.9-2.5s-1.3-0.8-2.2-0.8c-3.2,0.2-6.9,2.6-11.2,7.1s-6.2,9.3-5.9,14.1
		c0.1,1.8,0.5,3.2,1.1,4.3s1.4,1.7,2.4,1.7c0.1,0,0.1,0,0.2,0c2-0.2,5.3-3.3,9.7-9.4c0,0,0-0.1,0.1-0.1c-0.4,1.3-0.6,2.5-0.6,3.6
		c0,0.4,0,0.7,0,1c0,0,0,0.1,0,0.1c0,0,0,0,0,0c0.1,1.1,0.4,1.9,0.8,2.7c0.7,1.1,1.5,1.3,2.1,1.2c0.9-0.1,2-0.8,3.5-2.4
		c1.4-1.5,4.1-5.2,8.2-11.2l0.2-0.3l-0.1-0.1l7.4-10c0.5-0.7,0.9-1.3,1.3-1.8l2.1-3.7c-1.4,2.5-3.3,5.9-4.5,8.2
		c-0.4,0.8-0.8,1.6-1.2,2.5c-3,6.1-4.4,10.6-4.3,13.8c0.1,1.2,0.4,2.3,1,3.1c0.6,0.9,1.4,1.4,2.2,1.4h0.1c2.4-0.1,5.8-3.2,10.4-9.4
		c-0.1,1-0.2,1.9-0.2,2.9c0,1.6,0.4,2.9,1,3.9c0.7,1,1.5,1.5,2.5,1.5c1.7,0,3.7-1.2,6.2-3.6c2.2-2.1,4.3-4.7,6.2-7.8
		c0.6,0.7,1.4,1,2.2,1c0,0,0,0,0.1,0c1.3,0,2.5-0.8,3.6-2.5l0.2-0.3l-0.1-0.2c7.8-9.3,11.1-11.3,12.5-11.3c0.4,0,0.5,0.1,0.5,0.2
		c0.1,0.1,0.2,0.4,0.2,0.7c0,0.4-0.4,1.6-2.7,5L942.5,564l5.4,0.1l0.2-0.2c5-6.8,9.4-12.5,13.1-16.7c3.6-4.1,6.4-6.2,8.3-6.2
		c0.4,0,0.7,0.1,0.9,0.3s0.3,0.5,0.3,0.9c0,0.7-0.6,2.1-3.3,5.4l-2,2.4c-1.7,2.1-2.8,3.5-3.2,4.3c-0.5,0.8-0.9,1.7-1.3,2.8
		c-0.4,1.1-0.6,2.2-0.6,3.3c0,1.2,0.2,2.2,0.7,3c0.5,0.9,1.2,1.4,2,1.4c0,0,0,0,0.1,0c3,0,7.6-3.9,13.9-12l0.2-0.3l-0.8-1.3
		L972.7,554.8z M935.8,514.2c4.6-7.8,8-12.9,10.3-15.4c2.3-2.2,4.2-3.4,5.7-3.5c0.5,0,0.9,0.2,1.2,0.5c0.4,0.4,0.6,0.9,0.6,1.4
		c0.1,2.1-1.5,5.5-4.6,10.2c-3.2,4.8-7.4,9.7-12.5,14.5c-4.1,3.9-7.3,6.6-9.5,8.1C928.9,526.3,931.8,521,935.8,514.2z M894.2,558.1
		C894.2,558.1,894.2,558.1,894.2,558.1C894.2,558.1,894.2,558.1,894.2,558.1C894.2,558.1,894.2,558.1,894.2,558.1z M894.5,554.2
		c-0.3,0.4-0.6,0.9-0.9,1.4c-2.4,3.6-4.5,6.2-6.2,7.9c-2.2,2.1-3.1,2.4-3.5,2.5c-0.4-0.1-0.7-0.2-0.9-0.5c-0.3-0.4-0.4-0.8-0.5-1.2
		c-0.2-2.3,1.7-6.6,5.7-12.8c4.9-7.7,7.7-9.4,9.1-9.5c0.1,0,0.1,0,0.2,0c0.6,0,1.2,0.3,1.3,1.6c0.1,0.9-0.1,1.8-0.3,2.8
		c-0.1,0.4-0.2,0.9-0.4,1.3l1.6-1.5c0,0,0,0.1-0.1,0.1c-0.5,0.5-1.1,1.1-1.5,1.5c-0.1,0.2-0.1,0.3-0.2,0.5
		C897.3,549.7,896.2,551.7,894.5,554.2z M936.1,553.8c-1.6,2.6-3.5,4.8-5.6,6.6c-2.6,2.2-4,2.7-4.7,2.7c-0.4,0-0.7-0.2-1-0.5
		c-0.3-0.4-0.5-0.8-0.5-1.3c0-2,2.1-6.1,6.2-12.4c5.1-7.8,7.7-9.4,9-9.4c0.3,0,0.7,0.2,1,0.5c0.3,0.4,0.5,0.9,0.5,1.6
		c0,1.4-0.4,3.2-1.2,5.2C938.9,548.8,937.7,551.2,936.1,553.8z"/>
</g>
</svg>
