<svg width="173" height="498" viewBox="0 0 173 498" fill="none" xmlns="http://www.w3.org/2000/svg">
<path d="M64 28.5C54.8 21.7 48.1667 31.3333 46 37C46 18.5 64 13 75.5 23C87 33 75.5 37 64 28.5Z" fill="#AA2B2B"/>
<path d="M103.5 18.5C101.9 3.69998 79.1666 5.99999 68 8.99999C84.1831 -10.5 114 8.99999 120 21C120.129 21.2582 120.252 21.5148 120.37 21.7698C141.921 25.3105 175.809 36.0445 172.5 57C171.827 61.2627 169.547 64.7179 166.126 67.4991C171.019 79.5027 161.557 93.443 155.5 99.5C164.052 118.4 145.397 125.042 135 126C142.066 136.246 140.485 142.708 135.124 146.644C135.619 146.432 136.079 146.216 136.5 146C136.1 153.6 116.333 156.5 106.5 157C104.833 211.167 101.6 329.2 102 368C102.4 406.8 107.5 457.5 110 478C96.1667 470 63.3 454.8 42.5 458C21.7 461.2 16.1667 485.667 16 497.5C13 494.167 5.89999 480.8 1.49999 454C-2.90001 427.2 12 353.167 20 319.5C28.6667 262.5 46.9 140.4 50.5 108C55 67.5 105.5 37 103.5 18.5Z" fill="#AA2B2B"/>
</svg>
