<svg width="611" height="529" viewBox="0 0 611 529" fill="none" xmlns="http://www.w3.org/2000/svg">
<path d="M369 90C372.667 73.6666 387.6 38.2 418 27C456 13 491 -6.00001 525 2.99999C559 12 610 82 610 108C610 134 611 196 563 200C563.54 198.92 564.001 197.31 564.239 195.176C552.921 217.891 533.773 257.681 530 269C526 281 485.667 306 466 317C433.667 331.667 365 363 349 371C329 381 247 410 226 412C205 414 181 401 179 371C177 341 195 328 214 308C229.2 292 237.667 253.333 240 236C237.2 204 230.833 140.333 228 112.5C230 115.333 234.6 124.6 237 139C240 157 236.5 236 249.5 258.5C262.5 281 311.5 255.5 315 258.5C317.8 260.9 313.833 264.5 311.5 266C261.5 287.5 200 357.5 216.5 388.5C233 419.5 275 352 290 340.5C305 329 363.5 332.5 387.5 332.5C406.7 332.5 414.5 323.833 416 319.5C380.4 309.5 369.167 234 368 197.5C352.8 205.1 326.333 237.667 315 253C321.833 243.167 336.2 218.3 339 197.5C341.8 176.7 328.167 132.167 321 112.5L328 114.5C329.2 117.3 339.5 164.667 344.5 188L357 181.5C352.333 173.333 344.5 150.4 350.5 124C354.859 104.822 367.397 95.7406 377.765 92.0797C375.165 89.1022 372.309 87.9636 369 90Z" fill="#AA2A2A"/>
<path d="M36 258.5C3.2 227.7 -0.333328 215.333 2 213C2 199 23 222 36 227C46.4 231 69 234.667 79 236C80.6667 246 87.6 269.8 102 285C120 304 159 388.5 189 412C219 435.5 235 434 266 417C290.8 403.4 317.667 408 328 412C352 444.8 352 494.333 349 515C343.667 508.333 330.6 499 321 515C311.4 531 238.333 528.333 203 525C206.667 512.667 211.8 488 203 488C194.2 488 190 509.333 189 520H159C160 505 154 488 121 434C88 380 42 340.5 44 308C45.6 282 39.3333 264.167 36 258.5Z" fill="#AA2A2A"/>
<path d="M369 90C372.667 73.6667 387.6 38.2 418 27C456 13 491 -6.00001 525 2.99999C559 12 610 82 610 108C610 134 611 196 563 200C565.667 194.667 566.4 176.4 548 146C525 108 533 100 514 98C495 96 473 88 466 98C459 108 410 141 399 132C388 123 382 82 369 90ZM240 236C237.667 253.333 229.2 292 214 308C195 328 177 341 179 371C181 401 205 414 226 412C247 410 329 381 349 371C365 363 433.667 331.667 466 317C485.667 306 526 281 530 269C535 254 567 189 572 180L563 157C564 170.333 562.4 200.2 548 213C530 229 520 277 486 297C452 317 421 320 399 297C381.4 278.6 375.667 211.333 375 180C369.333 180.667 357.8 177 357 157C356 132 354 103 388 90C378 90.3333 356.5 97.6 350.5 124C344.5 150.4 352.333 173.333 357 181.5L344.5 188C339.5 164.667 329.2 117.3 328 114.5L321 112.5C328.167 132.167 341.8 176.7 339 197.5C336.2 218.3 321.833 243.167 315 253C326.333 237.667 352.8 205.1 368 197.5C369.167 234 380.4 309.5 416 319.5C414.5 323.833 406.7 332.5 387.5 332.5C363.5 332.5 305 329 290 340.5C275 352 233 419.5 216.5 388.5C200 357.5 261.5 287.5 311.5 266C313.833 264.5 317.8 260.9 315 258.5C311.5 255.5 262.5 281 249.5 258.5C236.5 236 240 157 237 139C234.6 124.6 230 115.333 228 112.5C230.833 140.333 237.2 204 240 236ZM2 213C-0.333328 215.333 3.2 227.7 36 258.5C39.3333 264.167 45.6 282 44 308C42 340.5 88 380 121 434C154 488 160 505 159 520H189C190 509.333 194.2 488 203 488C211.8 488 206.667 512.667 203 525C238.333 528.333 311.4 531 321 515C330.6 499 343.667 508.333 349 515C352 494.333 352 444.8 328 412C317.667 408 290.8 403.4 266 417C235 434 219 435.5 189 412C159 388.5 120 304 102 285C87.6 269.8 80.6667 246 79 236C69 234.667 46.4 231 36 227C23 222 2 199 2 213Z" stroke="#AA2A2A"/>
</svg>
