<svg width="1249" height="2120" viewBox="0 0 1249 2120" fill="none" xmlns="http://www.w3.org/2000/svg">
<path d="M279.5 295.5C298.7 303.1 297.833 275 295 260C290 257 279.5 246 275 235C270.5 224 268 204 275 199C280.6 195 284 199 285 201.5C277.5 206.852 279.5 220.5 282.5 235C285.5 249.5 300 252.5 314 260C328 267.5 334.5 309.5 380.5 328.5C426.5 347.5 438.5 330.5 448 324C455.6 318.8 467.833 262.5 473 235C473 226 472.3 198.8 469.5 162C466 116 457 101 445.5 93.5C434 86 421.5 106.5 406 127.5C390.5 148.5 358.5 145 342 144.5C325.5 144 325.5 159 325.5 173.5C325.5 185.1 312.167 201.333 305.5 208C304.5 199 295 200 279.5 187.5C264 175 261 129.5 263 97.5C265 65.5 302.5 18 346 4.5C389.5 -9 428 16.5 450.5 39.5C473 62.5 472.5 99 473 119.5C473.4 135.9 478.167 187.333 480.5 211C498 211 524.5 221.5 532.5 224.5C540.5 227.5 550 226.5 554.5 211C559 195.5 600.5 129 612 109.5C621.2 93.9 625.167 76.3333 626 69.5C627 81.6667 628.9 109.3 628.5 122.5C628 139 586.5 359 586.5 387C586.5 415 569.5 461.5 571 491.5C572.5 521.5 578 628 575 653C572 678 554.5 676 549.5 692.5C545.5 705.7 535.167 715.333 530.5 718.5C525.7 718.5 483.5 651.833 463 618.5C463.333 606.833 463.8 580.8 463 570C462 556.5 479 532.5 474.5 521.5C470 510.5 451.5 518 447 542C442.5 566 428.5 566.5 411 563.5C393.5 560.5 335 506.5 318 515C301 523.5 340.5 549 356 563.5C371.5 578 326.5 585.5 302.5 592C278.5 598.5 280.5 601 282 611C283.5 621 351.5 607.5 352 611C352.5 614.5 342.5 622.5 321.5 624.5C300.5 626.5 295 632.5 302.5 640.5C310 648.5 338.5 638 356 640.5C373.5 643 346.5 652.5 332 653C317.5 653.5 320 681.5 346.5 669.5C373 657.5 385 677.5 395.5 681.5C406 685.5 507.5 864.5 518 894.5C528.5 924.5 686.5 934 731 911.5C766.6 893.5 781.833 904 785 911.5C781.5 909 772.2 905.5 763 911.5C751.5 919 785 965.5 763 1004C741 1042.5 694.5 1025 674.5 1025C658.5 1025 692.5 1047.67 711.5 1059C736.5 1172 763 1151.5 785 1164.5C807 1177.5 791.5 1203 822 1222.5C852.5 1242 851 1241 922 1307C993 1373 1048.5 1509.5 1119.5 1565C1176.3 1609.4 1229.17 1667.83 1248.5 1691.5C1174.5 1680 1177.5 1769 1150 1808.5C1128 1840.1 1093.5 1861.33 1079 1868C1086 1811.5 1015.5 1829.5 982.5 1857.5C956.1 1879.9 893.5 1938.83 865.5 1965.5C877.833 1948.83 905.9 1906 919.5 1868C936.5 1820.5 946 1739 936.5 1727C927 1715 918 1789 902.5 1857.5C887 1926 861.5 1911.5 848.5 1965.5C838.1 2008.7 750.167 2043.83 707.5 2056C708 2038.5 701.8 2000.1 673 1986.5C644.2 1972.9 625 1939.5 619 1924.5C719 1925.7 756.667 1847.67 763 1808.5C752.6 1862.1 698.667 1887.83 673 1894C675.333 1890.5 681.3 1874.6 686.5 1839C691.7 1803.4 688.667 1725.83 686.5 1691.5H719.5V1857.5C738 1842 735 1743 735 1715C735 1687 715.5 1570 719.5 1509.5C723.5 1449 769.5 1367.5 735 1391C700.5 1414.5 678.5 1600.5 673 1703C667.5 1805.5 545.5 1978.5 474.5 2003.5C417.7 2023.5 346.167 2089.17 317.5 2119.5C325.5 2101 317.5 2082.5 309.5 2066.5C301.5 2050.5 208.5 2061.5 149 1978.5C101.4 1912.1 85.1667 1837.5 83 1808.5C143.8 1816.9 245.333 1725 288.5 1678C313.167 1642 364.1 1559.5 370.5 1517.5C376.9 1475.5 408.167 1449 423 1441C455 1416.5 518.5 1364.1 516.5 1350.5C514.5 1336.9 453.333 1384.17 423 1409.5C415 1393.5 316.5 1434.5 277 1409.5C237.5 1384.5 238.5 1375.5 229.5 1391C222.3 1403.4 258.167 1429.5 277 1441C236.2 1529.4 109.667 1563.83 51.5 1570C64.3333 1558.67 97.3 1524.1 126.5 1476.5C163 1417 188.5 1388.5 204.5 1367.5C220.5 1346.5 352 1232 441.5 1267.5C531 1303 581 1293.5 624.5 1278C659.3 1265.6 680.333 1242.17 686.5 1232C642.167 1247.67 541.6 1278.8 494 1278C434.5 1277 429.5 1141 423 1141C417.8 1141 397.167 1201.67 387.5 1232C350.5 1243 262.5 1289.5 238.5 1307C214.5 1324.5 111 1426.5 97.5 1476.5C86.7 1516.5 28 1555.5 0 1570C6.66667 1560.5 22.6 1536.7 33 1517.5C46 1493.5 50.5 1463.5 71.5 1434.5C92.5 1405.5 101.5 1355.5 104.5 1330.5C107.5 1305.5 101.5 1254 111 1232C120.5 1210 130.5 1171 126.5 1141C122.5 1111 153 1104 154.5 1018.5C156 933 190 896 204.5 864.5C219 833 212.5 739 212.5 707.5C212.5 676 182 620.5 169 588C158.6 562 164.667 500.5 169 473C172 450.167 190.6 397.4 241 369C291.4 340.6 287.667 308.167 279.5 295.5Z" fill="#AA2A2A"/>
</svg>
