<svg width="1791" height="696" viewBox="0 0 1791 696" fill="none" xmlns="http://www.w3.org/2000/svg">
<path d="M373.5 639.5C409.5 645.9 416.833 676.167 416 690.5C411 698.5 361.5 695.5 343 690.5C324.5 685.5 330 670 343 665.5C353.4 661.9 367.667 646.667 373.5 639.5Z" fill="#AA2A2A"/>
<path d="M510.5 639.5C498.1 659.5 466 681.833 451.5 690.5C477 698.5 497.5 686 506.5 669.5C513.7 656.3 512.167 644 510.5 639.5Z" fill="#AA2A2A"/>
<path d="M565 603.5L600.5 585C604 591.167 609.7 613.3 604.5 652.5C599.3 691.7 573.667 694.167 561.5 690.5C565.9 682.1 565.667 629 565 603.5Z" fill="#AA2A2A"/>
<path d="M674 530.5C684 529.3 699.833 501 706.5 487C706.5 497.5 738 538.5 761.5 555.5C780.3 569.1 795.333 586.833 800.5 594C797.833 600 783.6 610.3 748 603.5C712.4 596.7 683.833 552 674 530.5Z" fill="#AA2A2A"/>
<path d="M720.5 467.5C731.7 461.5 767.5 376.333 784 334.5C786 353.5 787.7 400.1 778.5 434.5C769.3 468.9 736 470.833 720.5 467.5Z" fill="#AA2A2A"/>
<path d="M337 107C260.2 174.2 111.667 167 47 155C47 229.4 133 324.667 176 363C264 373.4 374 250.667 418 188C402.058 200.953 401.007 195.043 393.087 150.488L393 150C386.6 114 400.333 44.3334 408 14C394.4 48.4 355 90.3334 337 107Z" fill="#AA2A2A"/>
<path d="M446 5.00003C458 -2.19997 478.333 2.00003 487 5.00003C485 17 479.6 43.2 474 52C467 63 446 136 438 150C430 164 426 131 418 97C410 63 431 14 446 5.00003Z" fill="#AA2A2A"/>
<path d="M38 363C40.4 339.8 66.3333 312 79 301C86.2 329.8 143.333 367.667 171 383C172.667 393 177.2 416.6 182 431C188 449 184 453 165 460C146 467 153 510 165 529C177 548 176 584 79 586C-18 588 3 534 10 520C17 506 10 483 3 460C-4 437 9 420 19 408C29 396 35 392 38 363Z" fill="#AA2A2A"/>
<path d="M1220 106C1199.2 82 1160.67 44 1144 28C1196 73 1384 100 1429 95C1474 90 1536 90 1555 106C1570.2 118.8 1634.67 122 1665 122C1651 138 1590 141 1536 137C1482 133 1429 148 1408 166C1387 184 1447 171 1472 166C1497 161 1529 173 1555 197C1581 221 1612 220 1679 225C1732.6 229 1758.67 254 1765 266C1740 265 1712 319 1701 348C1690 377 1682 400 1645 436C1630.91 449.711 1610.97 462.303 1591.35 472.634C1603.15 481.146 1616.93 490.952 1626 497C1644 509 1736 570 1753 586C1770 602 1808 647 1780 684C1752 721 1635 638 1616 608C1600.8 584 1465.67 499.333 1400 460L1242 379C1244 368.667 1249 350.6 1253 361C1258 374 1420 465 1471 491C1522 517 1626 611 1663 630C1700 649 1717 592 1716 579C1715 566 1668 533 1635 519C1615.95 510.918 1597.49 491.59 1585.18 475.818C1565.79 485.615 1547.37 493.051 1536 497V450C1536 419 1463 357 1429 327C1395 297 1375 249 1360 225C1345 201 1246 136 1220 106Z" fill="#AA2A2A"/>
<path d="M416 690.5C416.833 676.167 409.5 645.9 373.5 639.5C367.667 646.667 353.4 661.9 343 665.5C330 670 324.5 685.5 343 690.5C361.5 695.5 411 698.5 416 690.5ZM451.5 690.5C466 681.833 498.1 659.5 510.5 639.5C512.167 644 513.7 656.3 506.5 669.5C497.5 686 477 698.5 451.5 690.5ZM600.5 585L565 603.5C565.667 629 565.9 682.1 561.5 690.5C573.667 694.167 599.3 691.7 604.5 652.5C609.7 613.3 604 591.167 600.5 585ZM706.5 487C699.833 501 684 529.3 674 530.5C683.833 552 712.4 596.7 748 603.5C783.6 610.3 797.833 600 800.5 594C795.333 586.833 780.3 569.1 761.5 555.5C738 538.5 706.5 497.5 706.5 487ZM784 334.5C767.5 376.333 731.7 461.5 720.5 467.5C736 470.833 769.3 468.9 778.5 434.5C787.7 400.1 786 353.5 784 334.5ZM47 155C111.667 167 260.2 174.2 337 107C355 90.3334 394.4 48.4 408 14C400.333 44.3334 386.6 114 393 150C401 195 402 201 418 188C374 250.667 264 373.4 176 363C133 324.667 47 229.4 47 155ZM487 5.00003C478.333 2.00003 458 -2.19997 446 5.00003C431 14 410 63 418 97C426 131 430 164 438 150C446 136 467 63 474 52C479.6 43.2 485 17 487 5.00003ZM79 301C66.3333 312 40.4 339.8 38 363C35 392 29 396 19 408C9 420 -4 437 3 460C10 483 17 506 10 520C3 534 -18 588 79 586C176 584 177 548 165 529C153 510 146 467 165 460C184 453 188 449 182 431C177.2 416.6 172.667 393 171 383C143.333 367.667 86.2 329.8 79 301ZM1144 28C1160.67 44 1199.2 82 1220 106C1246 136 1345 201 1360 225C1375 249 1395 297 1429 327C1463 357 1536 419 1536 450C1536 474.8 1536 491.667 1536 497C1560 488.667 1615.4 464.8 1645 436C1682 400 1690 377 1701 348C1712 319 1740 265 1765 266C1758.67 254 1732.6 229 1679 225C1612 220 1581 221 1555 197C1529 173 1497 161 1472 166C1447 171 1387 184 1408 166C1429 148 1482 133 1536 137C1590 141 1651 138 1665 122C1634.67 122 1570.2 118.8 1555 106C1536 90 1474 90 1429 95C1384 100 1196 73 1144 28ZM1574 460C1583.33 475 1608.6 507.8 1635 519C1668 533 1715 566 1716 579C1717 592 1700 649 1663 630C1626 611 1522 517 1471 491C1420 465 1258 374 1253 361C1249 350.6 1244 368.667 1242 379L1400 460C1465.67 499.333 1600.8 584 1616 608C1635 638 1752 721 1780 684C1808 647 1770 602 1753 586C1736 570 1644 509 1626 497C1611.6 487.4 1585.33 468.333 1574 460Z" stroke="#AA2A2A"/>
</svg>
